<svg width="57" height="38" viewBox="0 0 57 38" fill="none" xmlns="http://www.w3.org/2000/svg">
<path d="M1.40866 27.6327L0.438855 27.3888L1.40866 27.6327ZM10.4124 5.01498L9.662 4.35399L10.4124 5.01498ZM41.3413 9.20469L41.282 8.20645L41.3413 9.20469ZM47.9417 31.205L47.5797 30.2729L47.9417 31.205ZM2.37847 27.8766C4.22179 20.5461 3.56349 14.3032 11.1628 5.67596L9.662 4.35399C1.63961 13.4616 2.16663 20.5179 0.438855 27.3888L2.37847 27.8766ZM11.1628 5.67596C15.5827 0.658138 22.1955 1.49948 28.4066 3.93004C31.4666 5.12747 34.3031 6.6653 36.5292 7.91465C37.6294 8.53207 38.6063 9.09389 39.3602 9.49012C39.7381 9.68871 40.0874 9.86052 40.3882 9.98253C40.6395 10.0845 41.0237 10.2253 41.4006 10.2029L41.282 8.20645C41.4032 8.19926 41.3983 8.23402 41.1401 8.12926C40.9312 8.04452 40.6505 7.90885 40.2907 7.71975C39.5693 7.34059 38.6406 6.80617 37.5081 6.17055C35.2688 4.9138 32.3316 3.3183 29.1355 2.06757C22.8344 -0.398181 15.0056 -1.71247 9.662 4.35399L11.1628 5.67596ZM41.4006 10.2029C42.8331 10.1178 44.4133 9.6305 45.9027 9.10116C47.4539 8.54992 48.8744 7.96733 50.2152 7.5568C51.5788 7.13927 52.5474 7.00947 53.157 7.17853C53.4169 7.25059 53.5956 7.37333 53.7344 7.56821C53.8861 7.78134 54.0372 8.14938 54.0975 8.78159L56.0884 8.59186C56.0069 7.73664 55.7819 6.99579 55.3637 6.40838C54.9326 5.80272 54.3478 5.43326 53.6915 5.25125C52.4687 4.91217 50.9937 5.22674 49.6296 5.64444C48.2426 6.06914 46.6512 6.71263 45.233 7.21663C43.7532 7.74255 42.4067 8.13964 41.282 8.20645L41.4006 10.2029ZM54.0975 8.78159C54.3675 11.6152 53.956 16.5991 52.7971 21.1388C52.2192 23.4024 51.468 25.5043 50.5551 27.148C49.6284 28.8167 48.6139 29.8711 47.5797 30.2729L48.3038 32.1371C49.9843 31.4844 51.2919 29.9405 52.3036 28.119C53.3292 26.2724 54.1328 23.9921 54.7349 21.6335C55.936 16.9287 56.3854 11.708 56.0884 8.59186L54.0975 8.78159ZM47.5797 30.2729C46.7952 30.5776 45.5334 30.6844 43.8174 30.6556C42.1277 30.6272 40.1788 30.4757 38.0555 30.3546C33.8956 30.1173 29.1088 29.9946 25.3288 31.4032L26.0272 33.2773C29.3573 32.0364 33.7322 32.1113 37.9416 32.3514C40.003 32.4689 42.0407 32.6261 43.7838 32.6553C45.5007 32.6842 47.1182 32.5977 48.3038 32.1371L47.5797 30.2729ZM25.3288 31.4032C21.7709 32.7291 14.9449 35.0407 9.49382 35.2961C6.7377 35.4252 4.59243 35.0128 3.34298 33.9565C2.20045 32.9906 1.53543 31.2292 2.37847 27.8766L0.438855 27.3888C-0.500087 31.1228 0.0888217 33.8243 2.05175 35.4838C3.90776 37.0529 6.71946 37.4283 9.58744 37.2939C15.3846 37.0222 22.4752 34.601 26.0272 33.2773L25.3288 31.4032Z" fill="white"/>
</svg>
