<svg width="56" height="56" viewBox="0 0 56 56" fill="none" xmlns="http://www.w3.org/2000/svg">
<rect width="56" height="56" rx="28" fill="#FF4747" fill-opacity="0.2"/>
<path d="M38.6667 24C38.6667 24 37.8504 33.9085 37.3768 38.0823C37.1513 40.0758 35.8931 41.244 33.832 41.2807C29.9099 41.3499 25.9833 41.3543 22.0627 41.2734C20.0799 41.2337 18.8426 40.0508 18.6217 38.0926C18.1451 33.8821 17.3333 24 17.3333 24" stroke="#FF4747" stroke-width="1.3" stroke-linecap="round" stroke-linejoin="round"/>
<path d="M25.3333 34.6667L25.3333 28" stroke="#FF4747" stroke-width="1.3" stroke-linecap="round"/>
<path d="M30.6667 34.6667L30.6667 28" stroke="#FF4747" stroke-width="1.3" stroke-linecap="round"/>
<path d="M40 20.6667H16" stroke="#FF4747" stroke-width="1.3" stroke-linecap="round" stroke-linejoin="round"/>
<path d="M33.3333 20L32.973 17.7533C32.7506 16.7169 31.9972 16 31.1386 16H24.8614C24.0028 16 23.2495 16.7169 23.027 17.7533L22.6667 20" stroke="#FF4747" stroke-width="1.3" stroke-linecap="round" stroke-linejoin="round"/>
</svg>
