<svg width="56" height="56" viewBox="0 0 56 56" fill="none" xmlns="http://www.w3.org/2000/svg">
<rect width="56" height="56" rx="28" fill="white" fill-opacity="0.05"/>
<path opacity="0.4" d="M38.6563 37.2715H31.0639C30.3232 37.2715 29.7207 37.8835 29.7207 38.636C29.7207 39.3899 30.3232 40.0005 31.0639 40.0005H38.6563C39.3971 40.0005 39.9995 39.3899 39.9995 38.636C39.9995 37.8835 39.3971 37.2715 38.6563 37.2715Z" fill="#76B5FF"/>
<path d="M25.7454 21.2061L32.9398 27.0196C33.1134 27.1586 33.143 27.4137 33.0076 27.5915L24.4783 38.7052C23.9422 39.3918 23.152 39.7802 22.3054 39.7945L17.6493 39.8519C17.401 39.8547 17.1837 39.6827 17.1272 39.4362L16.069 34.8353C15.8856 33.9897 16.069 33.1154 16.6052 32.4417L25.1767 21.2749C25.315 21.0957 25.5704 21.0642 25.7454 21.2061Z" fill="#76B5FF"/>
<path opacity="0.4" d="M36.1607 23.5539L34.7737 25.2853C34.6341 25.4616 34.3829 25.4903 34.2094 25.3498C32.5233 23.9853 28.2057 20.4838 27.0078 19.5135C26.8329 19.3701 26.8089 19.115 26.95 18.9373L28.2876 17.2761C29.501 15.7138 31.6174 15.5705 33.3247 16.9321L35.2859 18.4944C36.0902 19.125 36.6263 19.9563 36.8098 20.8307C37.0214 21.7924 36.7956 22.7369 36.1607 23.5539Z" fill="#76B5FF"/>
</svg>
