<svg width="24" height="24" viewBox="0 0 24 24" fill="none" xmlns="http://www.w3.org/2000/svg">
<path d="M5 10.85C4.64101 10.85 4.35 11.141 4.35 11.5C4.35 11.859 4.64101 12.15 5 12.15V10.85ZM20 12.15C20.359 12.15 20.65 11.859 20.65 11.5C20.65 11.141 20.359 10.85 20 10.85V12.15ZM10.7111 17.5823C11.0327 17.7418 11.4227 17.6105 11.5823 17.2889C11.7418 16.9673 11.6105 16.5773 11.2889 16.4177L10.7111 17.5823ZM11.289 6.58223C11.6105 6.42263 11.7418 6.03258 11.5822 5.71102C11.4226 5.38946 11.0326 5.25817 10.711 5.41777L11.289 6.58223ZM5 12.15H20V10.85H5V12.15ZM11 17C11.2889 16.4177 11.289 16.4178 11.289 16.4178C11.289 16.4178 11.289 16.4178 11.289 16.4178C11.289 16.4178 11.2888 16.4177 11.2886 16.4176C11.2881 16.4173 11.2873 16.4169 11.2861 16.4163C11.2838 16.4152 11.28 16.4133 11.2749 16.4107C11.2646 16.4055 11.2488 16.3976 11.228 16.387C11.1864 16.3657 11.1243 16.3337 11.0449 16.2919C10.8859 16.2083 10.6574 16.0853 10.3828 15.9298C9.83215 15.618 9.10186 15.1787 8.375 14.6653C7.6438 14.1489 6.93898 13.5734 6.42361 12.9928C5.89143 12.3933 5.65 11.8874 5.65 11.5014H4.35C4.35 12.3761 4.85857 13.188 5.45139 13.8558C6.06102 14.5426 6.8562 15.1842 7.625 15.7272C8.39814 16.2733 9.16785 16.7358 9.74223 17.0611C10.0301 17.224 10.2704 17.3534 10.4395 17.4424C10.5241 17.4869 10.591 17.5214 10.6372 17.5449C10.6603 17.5567 10.6783 17.5658 10.6907 17.5721C10.6969 17.5752 10.7018 17.5776 10.7052 17.5793C10.7069 17.5802 10.7082 17.5808 10.7092 17.5813C10.7097 17.5816 10.7101 17.5818 10.7104 17.5819C10.7106 17.582 10.7108 17.5821 10.7108 17.5821C10.711 17.5822 10.7111 17.5823 11 17ZM5.65 11.5014C5.65 11.1147 5.89159 10.6084 6.42373 10.0086C6.9391 9.42769 7.64392 8.85194 8.3751 8.33527C9.10196 7.82166 9.83224 7.3822 10.3829 7.07031C10.6575 6.91474 10.886 6.79176 11.0449 6.70807C11.1244 6.66625 11.1864 6.63428 11.2281 6.61302C11.2489 6.60239 11.2647 6.59444 11.2749 6.58927C11.2801 6.58669 11.2838 6.5848 11.2862 6.58362C11.2874 6.58303 11.2882 6.58262 11.2887 6.58239C11.2889 6.58227 11.289 6.5822 11.2891 6.58217C11.2891 6.58216 11.2891 6.58217 11.2891 6.58217C11.2891 6.58219 11.289 6.58223 11 6C10.711 5.41777 10.7109 5.41783 10.7108 5.4179C10.7107 5.41794 10.7105 5.41802 10.7104 5.4181C10.71 5.41825 10.7096 5.41845 10.7092 5.4187C10.7082 5.41919 10.7068 5.41986 10.7051 5.42071C10.7017 5.42242 10.6969 5.42484 10.6907 5.42797C10.6782 5.43422 10.6603 5.4433 10.6371 5.4551C10.5909 5.47869 10.524 5.51317 10.4394 5.55771C10.2703 5.64674 10.03 5.77613 9.74214 5.93917C9.16776 6.26452 8.39804 6.72726 7.6249 7.27358C6.85608 7.81683 6.0609 8.45871 5.45127 9.14587C4.85841 9.81412 4.35 10.6264 4.35 11.5014H5.65Z" fill="white"/>
</svg>
