<svg width="24" height="24" viewBox="0 0 24 24" fill="none" xmlns="http://www.w3.org/2000/svg">
<path d="M5.9252 11.99L4.15585 13.0464L3.71093 13.307C2.76303 13.8623 2.76302 15.2937 3.71092 15.849L6.06915 17.2303L9.74754 19.385C11.1476 20.205 12.8524 20.205 14.2525 19.385L20.2891 15.849C21.237 15.2937 21.237 13.8623 20.2891 13.307L19.8442 13.0464L18.0239 12.0198M5.9252 11.99L9.74754 14.2289C11.1476 15.049 12.8524 15.049 14.2525 14.2289L18.0239 12.0198M5.9252 11.99L3.71092 10.693C2.76302 10.1377 2.76303 8.70626 3.71093 8.15102L9.74754 4.61505C11.1476 3.79498 12.8524 3.79498 14.2525 4.61505L20.2891 8.15102C21.237 8.70626 21.237 10.1377 20.2891 10.693L18.0239 12.0198" stroke="white" stroke-width="1.3" stroke-linecap="round" stroke-linejoin="round"/>
</svg>
