<svg width="26" height="26" viewBox="0 0 26 26" fill="none" xmlns="http://www.w3.org/2000/svg">
<rect width="26" height="26" rx="13" fill="#F26322" fill-opacity="0.3"/>
<ellipse cx="14.6667" cy="6.33333" rx="0.833333" ry="0.833333" fill="#FF8953"/>
<path d="M7.16663 17.1667L11.3333 18L11.9583 16.75M16.3333 20.5V17.1667L13 14.6667L13.8333 9.66667M13.8333 9.66667L9.66663 10.5V13M13.8333 9.66667L16.3333 12.1667L18.8333 13M13.8333 6.33333C13.8333 6.55435 13.9211 6.76631 14.0774 6.92259C14.2337 7.07887 14.4456 7.16667 14.6666 7.16667C14.8876 7.16667 15.0996 7.07887 15.2559 6.92259C15.4122 6.76631 15.5 6.55435 15.5 6.33333C15.5 6.11232 15.4122 5.90036 15.2559 5.74408C15.0996 5.5878 14.8876 5.5 14.6666 5.5C14.4456 5.5 14.2337 5.5878 14.0774 5.74408C13.9211 5.90036 13.8333 6.11232 13.8333 6.33333Z" stroke="#FF8953" stroke-width="2" stroke-linecap="round" stroke-linejoin="round"/>
</svg>
