<svg width="24" height="24" viewBox="0 0 24 24" fill="none" xmlns="http://www.w3.org/2000/svg">
<path fill-rule="evenodd" clip-rule="evenodd" d="M16.2169 3H7.78216C4.84281 3 3 5.08119 3 8.02638V15.9736C3 18.9188 4.83405 21 7.78216 21H16.2159C19.165 21 21 18.9188 21 15.9736V8.02638C21 5.08119 19.165 3 16.2169 3Z" stroke="white" stroke-width="1.3" stroke-linecap="round" stroke-linejoin="round"/>
<path d="M13.5 8V16H15.5C16.0304 16 16.5391 15.7893 16.9142 15.4142C17.2893 15.0391 17.5 14.5304 17.5 14V10C17.5 9.46957 17.2893 8.96086 16.9142 8.58579C16.5391 8.21071 16.0304 8 15.5 8H13.5Z" stroke="white" stroke-width="1.3" stroke-linecap="round" stroke-linejoin="round"/>
<path d="M6.5 8H9.5C9.76522 8 10.0196 8.10536 10.2071 8.29289C10.3946 8.48043 10.5 8.73478 10.5 9V11C10.5 11.2652 10.3946 11.5196 10.2071 11.7071C10.0196 11.8946 9.76522 12 9.5 12H7.5C7.23478 12 6.98043 12.1054 6.79289 12.2929C6.60536 12.4804 6.5 12.7348 6.5 13V15C6.5 15.2652 6.60536 15.5196 6.79289 15.7071C6.98043 15.8946 7.23478 16 7.5 16H10.5" stroke="white" stroke-width="1.3" stroke-linecap="round" stroke-linejoin="round"/>
</svg>
