<svg width="24" height="24" viewBox="0 0 24 24" fill="none" xmlns="http://www.w3.org/2000/svg">
<path d="M19.8413 8.2936L13.8416 3.63141C13.3151 3.22218 12.6671 3 12 3C11.3329 3 10.6849 3.22218 10.1584 3.63141L4.15763 8.2936C3.797 8.57379 3.50523 8.93261 3.3046 9.34265C3.10397 9.7527 2.99978 10.2031 3 10.6595V18.7521C3 19.3483 3.23705 19.92 3.65901 20.3416C4.08097 20.7632 4.65326 21 5.25 21H18.75C19.3467 21 19.919 20.7632 20.341 20.3416C20.7629 19.92 21 19.3483 21 18.7521V10.6595C21 9.73452 20.5725 8.86121 19.8413 8.2936Z" stroke="white" stroke-width="1.3" stroke-linecap="round" stroke-linejoin="round"/>
<path d="M15 15C14.6957 15.4561 14.2583 15.8348 13.7318 16.0981C13.2052 16.3614 12.6079 16.5 12 16.5C11.3921 16.5 10.7948 16.3614 10.2683 16.0981C9.74169 15.8348 9.30429 15.4561 9 15" stroke="white" stroke-width="1.3" stroke-linecap="round" stroke-linejoin="round"/>
</svg>
