<svg width="30" height="31" viewBox="0 0 30 31" fill="none" xmlns="http://www.w3.org/2000/svg">
<path opacity="0.3" d="M0 8C0 3.85786 3.35786 0.5 7.5 0.5H22.5C26.6421 0.5 30 3.85786 30 8V23C30 27.1421 26.6421 30.5 22.5 30.5H7.5C3.35786 30.5 0 27.1421 0 23V8Z" fill="white"/>
<path fill-rule="evenodd" clip-rule="evenodd" d="M30.0001 21.5114V22.9981C30.0001 27.1402 26.6423 30.4981 22.5001 30.4981H7.50012C3.82829 30.4981 0.772753 27.8595 0.126221 24.3749L0.677944 23.8232C0.726629 23.7745 0.779253 23.7299 0.835279 23.6899L4.45009 21.1079C5.3451 20.4686 6.57113 20.5701 7.34887 21.3478L9.44044 23.4394C10.0262 24.0252 10.976 24.0252 11.5618 23.4394L19.5482 15.453C20.371 14.6301 21.6856 14.5705 22.5796 15.3155L29.8889 21.4066C29.9281 21.4392 29.9653 21.4743 30.0001 21.5114Z" fill="white"/>
<circle cx="3" cy="3" r="3" transform="matrix(-1 0 0 1 12 6.50195)" fill="white"/>
</svg>
