<svg width="428" height="272" viewBox="0 0 428 272" fill="none" xmlns="http://www.w3.org/2000/svg">
<g opacity="0.6">
<path d="M432.221 -269.967H-19.6436V399.835H432.221V-269.967Z" fill="#F9F9F9"/>
<path d="M338.535 168.316L329.353 185.586L379.107 212.041L388.29 194.771L338.535 168.316Z" fill="#F9F9F9"/>
<path d="M393.408 196.056L384.226 213.326L402.592 223.092L411.775 205.822L393.408 196.056Z" fill="#F9F9F9"/>
<path d="M413.817 205.58L402.229 227.371L439.644 247.267L451.232 225.476L413.817 205.58Z" fill="#F9F9F9"/>
<path d="M418.715 279.534C413.903 288.382 402.727 291.487 393.879 286.675L333.962 253.456C325.114 248.644 322.009 237.468 326.821 228.62C331.633 219.772 342.81 216.668 351.658 221.48L411.575 254.698C420.423 259.665 423.527 270.686 418.715 279.534Z" fill="#F9F9F9"/>
<path d="M-17.3146 236.381C-15.6071 237.157 125.183 317.254 125.183 317.254L136.204 339.606L115.87 400.145C115.87 400.145 -22.7475 408.061 -24.455 403.715C-26.1625 399.369 -42.306 309.027 -41.9956 306.543C-41.8404 304.06 -17.3146 236.381 -17.3146 236.381Z" fill="#F9F9F9"/>
<path d="M377.271 396.575C377.271 396.575 369.975 389.9 369.82 389.279C369.665 388.659 369.975 380.897 369.975 380.897C369.975 380.897 371.527 363.046 387.981 363.201C391.862 363.201 393.104 364.443 398.537 377.637C399.934 381.052 403.038 383.536 406.609 383.847C409.713 384.157 413.128 382.915 415.301 377.327C416.698 373.912 415.922 369.876 413.438 367.082L399.934 351.559C395.898 346.903 395.277 340.073 398.537 334.95L438.275 270.531L445.26 388.814C445.26 388.814 435.015 408.838 430.203 406.82C425.391 404.647 377.271 396.575 377.271 396.575Z" fill="#F9F9F9"/>
<path d="M230.582 233.897C230.582 233.897 243.776 194.935 251.072 194.625C251.072 194.625 256.971 194.78 262.559 198.35C267.992 201.921 269.854 209.061 266.75 214.804L259.144 228.93C255.263 236.226 247.036 240.417 238.964 238.865C235.705 238.088 232.755 236.691 230.582 233.897Z" fill="#F9F9F9"/>
<path d="M267.371 164.51L262.248 176.928L276.063 182.051L290.81 171.496L298.726 176.618L310.213 173.358L319.527 162.027L316.888 156.904L267.371 164.51Z" fill="#F9F9F9"/>
<g opacity="0.5">
<path opacity="0.5" d="M-17.0039 240.262L32.2029 267.426L46.7942 281.707L45.5523 288.227L23.8206 330.448" stroke="#4D2161" stroke-width="0.5206" stroke-miterlimit="10" stroke-linecap="round" stroke-linejoin="round" stroke-dasharray="2.08 2.08"/>
<g opacity="0.5">
<path opacity="0.5" d="M352.125 -84.7812L315.802 6.3367" stroke="#4D2161" stroke-width="0.5206" stroke-miterlimit="10" stroke-linecap="round" stroke-linejoin="round" stroke-dasharray="2.08 2.08"/>
<path opacity="0.5" d="M309.747 21.084L206.677 237.314" stroke="#4D2161" stroke-width="0.5206" stroke-miterlimit="10" stroke-linecap="round" stroke-linejoin="round" stroke-dasharray="2.08 2.08"/>
<path opacity="0.5" d="M155.142 343.023L150.174 341.471L148.467 326.88L-19.488 230.174" stroke="#4D2161" stroke-width="0.5206" stroke-miterlimit="10" stroke-linecap="round" stroke-linejoin="round" stroke-dasharray="2.08 2.08"/>
<path opacity="0.5" d="M-18.7115 157.838C-18.7115 156.131 151.572 8.51028 151.572 8.51028C151.572 8.51028 96.0009 -80.2792 31.1162 -118.775L-26.9385 -85.5569" stroke="#4D2161" stroke-width="0.5206" stroke-miterlimit="10" stroke-linecap="round" stroke-linejoin="round" stroke-dasharray="2.08 2.08"/>
<path opacity="0.5" d="M356.316 -38.5234L359.886 -34.1771L346.071 5.56088L238.033 220.705L185.566 327.5L314.249 402.785" stroke="#4D2161" stroke-width="0.5206" stroke-miterlimit="10" stroke-linecap="round" stroke-linejoin="round" stroke-dasharray="2.08 2.08"/>
<path opacity="0.5" d="M293.139 263.547L346.381 295.058" stroke="#4D2161" stroke-width="0.5206" stroke-miterlimit="10" stroke-linecap="round" stroke-linejoin="round" stroke-dasharray="2.08 2.08"/>
<path opacity="0.5" d="M361.283 271.773L325.736 334.795" stroke="#4D2161" stroke-width="0.5206" stroke-miterlimit="10" stroke-linecap="round" stroke-linejoin="round" stroke-dasharray="2.08 2.08"/>
<path opacity="0.5" d="M311.921 222.723C311.921 222.102 323.097 202.078 323.097 202.078L334.894 195.248L435.792 250.509" stroke="#4D2161" stroke-width="0.5206" stroke-miterlimit="10" stroke-linecap="round" stroke-linejoin="round" stroke-dasharray="2.08 2.08"/>
<path opacity="0.5" d="M330.548 152.096L436.102 210.771" stroke="#4D2161" stroke-width="0.5206" stroke-miterlimit="10" stroke-linecap="round" stroke-linejoin="round" stroke-dasharray="2.08 2.08"/>
<path opacity="0.5" d="M54.7109 118.256L78.771 137.659L153.59 176" stroke="#4D2161" stroke-width="0.5206" stroke-miterlimit="10" stroke-linecap="round" stroke-linejoin="round" stroke-dasharray="2.08 2.08"/>
<path opacity="0.5" d="M196.121 139.832L159.953 155.044L151.261 188.728" stroke="#4D2161" stroke-width="0.5206" stroke-miterlimit="10" stroke-linecap="round" stroke-linejoin="round" stroke-dasharray="2.08 2.08"/>
<path opacity="0.5" d="M53.7792 193.85C52.6927 193.23 -10.9502 177.396 -10.9502 177.396" stroke="#4D2161" stroke-width="0.5206" stroke-miterlimit="10" stroke-linecap="round" stroke-linejoin="round" stroke-dasharray="2.08 2.08"/>
<path opacity="0.5" d="M75.8212 96.6777L-18.5565 182.518" stroke="#4D2161" stroke-width="0.5206" stroke-miterlimit="10" stroke-linecap="round" stroke-linejoin="round" stroke-dasharray="2.08 2.08"/>
<path opacity="0.5" d="M212.886 40.4863V48.8685L174.235 107.078C174.235 107.078 144.121 95.2812 142.879 93.8842C141.637 92.4872 117.732 62.9942 117.732 62.9942L101.278 64.236" stroke="#4D2161" stroke-width="0.5206" stroke-miterlimit="10" stroke-linecap="round" stroke-linejoin="round" stroke-dasharray="2.08 2.08"/>
<path opacity="0.5" d="M187.895 105.836L182.772 123.842" stroke="#4D2161" stroke-width="0.5206" stroke-miterlimit="10" stroke-linecap="round" stroke-linejoin="round" stroke-dasharray="2.08 2.08"/>
<path opacity="0.5" d="M174.234 107.08L185.721 111.271" stroke="#4D2161" stroke-width="0.5206" stroke-miterlimit="10" stroke-linecap="round" stroke-linejoin="round" stroke-dasharray="2.08 2.08"/>
<path opacity="0.5" d="M232.134 129.432L255.107 134.399" stroke="#4D2161" stroke-width="0.5206" stroke-miterlimit="10" stroke-linecap="round" stroke-linejoin="round" stroke-dasharray="2.08 2.08"/>
<path opacity="0.5" d="M266.284 55.3867L218.319 45.6074L212.266 72.6168" stroke="#4D2161" stroke-width="0.5206" stroke-miterlimit="10" stroke-linecap="round" stroke-linejoin="round" stroke-dasharray="2.08 2.08"/>
<path opacity="0.5" d="M155.142 98.2291C155.142 98.2291 205.901 54.9209 205.435 54.3C204.969 53.6791 164.766 9.75 164.766 9.75" stroke="#4D2161" stroke-width="0.5206" stroke-miterlimit="10" stroke-linecap="round" stroke-linejoin="round" stroke-dasharray="2.08 2.08"/>
<path opacity="0.5" d="M160.265 24.186L170.199 15.959" stroke="#4D2161" stroke-width="0.5206" stroke-miterlimit="10" stroke-linecap="round" stroke-linejoin="round" stroke-dasharray="2.08 2.08"/>
<path opacity="0.5" d="M80.6339 -68.1719L-15.7617 13.0115" stroke="#4D2161" stroke-width="0.5206" stroke-miterlimit="10" stroke-linecap="round" stroke-linejoin="round" stroke-dasharray="2.08 2.08"/>
<path opacity="0.5" d="M4.72754 -5.15039L13.4202 6.64683L23.5099 -1.73541L82.0303 68.5822" stroke="#4D2161" stroke-width="0.5206" stroke-miterlimit="10" stroke-linecap="round" stroke-linejoin="round" stroke-dasharray="2.08 2.08"/>
<path opacity="0.5" d="M350.882 87.3657L314.249 69.3594" stroke="#4D2161" stroke-width="0.5206" stroke-miterlimit="10" stroke-linecap="round" stroke-linejoin="round" stroke-dasharray="2.08 2.08"/>
<path opacity="0.5" d="M366.561 15.4958L382.549 2.14635L380.221 -3.44178L394.191 -15.239L387.05 -21.4481L401.642 -33.7109" stroke="#4D2161" stroke-width="0.5206" stroke-miterlimit="10" stroke-linecap="round" stroke-linejoin="round" stroke-dasharray="2.08 2.08"/>
<path opacity="0.5" d="M176.563 238.246L202.02 245.387L189.136 259.823L165.852 305.149L158.557 307.012L-18.2461 210.15" stroke="#4D2161" stroke-width="0.5206" stroke-miterlimit="10" stroke-linecap="round" stroke-linejoin="round" stroke-dasharray="2.08 2.08"/>
<g opacity="0.5">
<path opacity="0.5" d="M323.718 182.518L328.064 184.691" stroke="#4D2161" stroke-width="0.5206" stroke-miterlimit="10" stroke-linecap="round" stroke-linejoin="round"/>
<path opacity="0.5" d="M324.959 179.723L329.461 181.896" stroke="#4D2161" stroke-width="0.5206" stroke-miterlimit="10" stroke-linecap="round" stroke-linejoin="round"/>
<path opacity="0.5" d="M326.202 176.773L330.704 179.102" stroke="#4D2161" stroke-width="0.5206" stroke-miterlimit="10" stroke-linecap="round" stroke-linejoin="round"/>
<path opacity="0.5" d="M327.599 173.982L331.945 176.311" stroke="#4D2161" stroke-width="0.5206" stroke-miterlimit="10" stroke-linecap="round" stroke-linejoin="round"/>
<path opacity="0.5" d="M328.84 171.188L333.341 173.516" stroke="#4D2161" stroke-width="0.5206" stroke-miterlimit="10" stroke-linecap="round" stroke-linejoin="round"/>
<path opacity="0.5" d="M330.082 168.393L334.584 170.566" stroke="#4D2161" stroke-width="0.5206" stroke-miterlimit="10" stroke-linecap="round" stroke-linejoin="round"/>
</g>
<g opacity="0.5">
<path opacity="0.5" d="M307.419 19.8418L311.921 22.1702" stroke="#4D2161" stroke-width="0.5206" stroke-miterlimit="10" stroke-linecap="round" stroke-linejoin="round"/>
<path opacity="0.5" d="M308.66 17.0469L313.162 19.3753" stroke="#4D2161" stroke-width="0.5206" stroke-miterlimit="10" stroke-linecap="round" stroke-linejoin="round"/>
<path opacity="0.5" d="M310.058 14.252L314.559 16.4251" stroke="#4D2161" stroke-width="0.5206" stroke-miterlimit="10" stroke-linecap="round" stroke-linejoin="round"/>
<path opacity="0.5" d="M311.3 11.4609L315.801 13.6341" stroke="#4D2161" stroke-width="0.5206" stroke-miterlimit="10" stroke-linecap="round" stroke-linejoin="round"/>
<path opacity="0.5" d="M312.541 8.66602L317.043 10.8392" stroke="#4D2161" stroke-width="0.5206" stroke-miterlimit="10" stroke-linecap="round" stroke-linejoin="round"/>
<path opacity="0.5" d="M313.939 5.87109L318.44 8.04425" stroke="#4D2161" stroke-width="0.5206" stroke-miterlimit="10" stroke-linecap="round" stroke-linejoin="round"/>
</g>
<path opacity="0.5" d="M267.991 163.115L313.938 155.664L337.067 162.028L435.015 213.408" stroke="#4D2161" stroke-width="0.5206" stroke-miterlimit="10" stroke-linecap="round" stroke-linejoin="round" stroke-dasharray="2.08 2.08"/>
<path opacity="0.5" d="M308.195 260.754C308.195 260.599 308.816 259.357 309.748 257.805C313.318 251.906 321.079 249.733 327.133 253.148L392.173 289.782C398.382 293.352 400.555 301.113 396.985 307.322L394.036 312.755" stroke="#4D2161" stroke-width="0.5206" stroke-miterlimit="10" stroke-linecap="round" stroke-linejoin="round" stroke-dasharray="2.08 2.08"/>
</g>
<path opacity="0.5" d="M418.716 279.534C413.904 288.382 402.728 291.487 393.88 286.675L333.963 253.456C325.115 248.644 322.01 237.468 326.822 228.62C331.634 219.772 342.811 216.668 351.659 221.48L411.576 254.698C420.424 259.665 423.528 270.686 418.716 279.534Z" stroke="#4D2161" stroke-width="0.5543" stroke-miterlimit="10" stroke-linecap="round" stroke-linejoin="round" stroke-dasharray="2.22 2.22"/>
</g>
<path d="M225.77 -140.044C224.839 -139.113 224.839 -137.56 225.926 -136.629L265.664 -99.0641L271.252 -54.6693L259.92 -3.91031L220.182 -45.511L229.651 -54.8246C230.582 -55.7559 230.582 -57.3082 229.651 -58.2396C228.72 -59.1709 227.167 -59.1709 226.236 -58.2396L200.468 -32.9377L144.432 -91.7685C143.5 -92.6998 141.948 -92.6998 141.017 -91.9237C140.085 -90.9923 140.085 -89.4401 140.862 -88.5087L197.519 -29.057L193.173 -19.7434L148.933 19.6841L110.903 -25.3316C110.748 -25.4868 110.748 -25.642 110.592 -25.9525C110.437 -26.1077 110.282 -26.2629 109.971 -26.4181L82.0307 -59.4814C81.565 -59.9471 80.9441 -60.2575 80.3232 -60.4127C79.7023 -60.4127 79.0814 -60.2575 78.6157 -59.7918L30.0298 -17.8807C26.6149 -14.9314 26.1492 -9.96414 28.9433 -6.54915L47.5704 17.0453C50.3645 20.6155 55.3317 21.2364 59.0572 18.4423L108.264 -21.1405L145.208 22.7886L34.8419 121.047L22.2685 105.369L57.9706 74.7895C63.4035 70.1327 64.1797 62.0609 59.6781 56.3176L23.8208 11.6123C23.3551 11.1467 22.8894 10.8362 22.2685 10.681L0.381596 8.04213C-0.860216 7.8869 -2.10204 8.81827 -2.25726 10.2153C-2.41249 11.6124 -1.48113 12.6989 -0.0840893 12.8542L20.8715 15.3378L31.4269 28.3768L-9.24245 64.0789C-11.7261 66.2521 -12.0365 70.1327 -10.0186 72.7715L31.7373 124.617L-19.0217 169.788C-19.9531 170.719 -20.1083 172.272 -19.1769 173.203C-18.7113 173.669 -18.0904 173.979 -17.3142 173.979C-16.6933 173.979 -16.2276 173.824 -15.762 173.358L71.0096 96.0555L195.501 141.071L192.086 157.836C191.776 159.077 192.707 160.475 193.949 160.63C194.104 160.63 194.259 160.63 194.415 160.63C195.501 160.63 196.588 159.854 196.743 158.767L214.284 74.0134C214.594 72.7716 213.663 71.3745 212.421 71.2193C211.179 70.9088 209.782 71.8402 209.627 73.082L196.433 136.259L75.0455 92.3301L87.7741 80.9986C89.6368 83.7926 94.1384 89.0703 101.9 89.0703C102.21 89.0703 102.365 89.0703 102.676 89.0703C103.142 89.0703 103.762 88.9151 104.073 88.4494L112.61 81.4642C113.697 80.6881 113.852 79.1358 112.921 78.0493C112.145 76.9627 110.592 76.8075 109.506 77.7388L101.589 84.2583C95.5354 84.1031 92.2757 79.4463 91.3443 77.894L170.82 7.11078L198.606 38.777C200.934 41.4158 204.349 42.8129 207.764 42.8129C210.558 42.8129 213.352 41.8815 215.681 39.8635L226.236 30.7052C228.72 28.532 230.272 25.5827 230.427 22.323C230.582 19.0632 229.496 15.8035 227.323 13.4751L198.295 -18.3464L202.642 -27.8152L216.922 -41.7856L258.834 2.14351L248.899 46.8487C248.589 48.0905 249.365 49.4876 250.762 49.798C250.917 49.798 251.072 49.798 251.228 49.798C252.314 49.798 253.401 49.0219 253.556 47.9353L276.064 -53.5828C276.064 -53.8932 276.064 -54.2037 276.064 -54.3589L270.32 -99.9955C270.32 -100.616 270.01 -101.082 269.544 -101.393L229.03 -139.578C228.254 -141.13 226.702 -140.975 225.77 -140.044ZM56.2631 15.0273C54.7109 16.1139 52.6929 15.8035 51.6063 14.4064L32.9791 -9.188C31.8926 -10.585 32.0478 -12.7582 33.4448 -13.8448L80.168 -54.2037L105.315 -24.4002L56.2631 15.0273ZM-6.44837 69.667C-6.91405 69.0461 -6.91405 68.27 -6.29315 67.6491L34.221 32.1022L56.2631 59.7325C59.0572 63.3027 58.5915 68.4252 55.1765 71.3745L19.4744 101.799L-6.44837 69.667ZM223.752 16.5796C225.149 17.9766 225.77 19.9946 225.615 21.8573C225.46 23.8752 224.529 25.5827 223.132 26.9798L212.576 36.1381C209.627 38.777 204.97 38.4665 202.331 35.362L174.546 3.69577L195.346 -14.7762L223.752 16.5796Z" fill="white" stroke="#DAD7D7" stroke-width="0.5206" stroke-miterlimit="10"/>
<path d="M442 112.819L417.319 112.198L417.785 78.3588L434.705 85.344C435.947 85.8097 437.343 85.1888 437.964 84.1022C438.43 82.8604 437.809 81.4633 436.723 80.9976L417.319 72.9259C417.009 72.7706 416.854 72.7706 416.543 72.7706C416.543 72.7706 416.543 72.7706 416.388 72.7706H414.68L360.506 70.9079C359.575 70.9079 358.799 71.3736 358.333 72.1497L340.172 105.213C340.017 105.523 339.861 105.834 339.861 106.3L337.843 148.211L326.822 149.297L277.926 124.461L362.214 -54.0494L394.346 -38.8372L412.818 -18.9682L370.751 15.3368C369.665 16.113 369.51 17.6653 370.441 18.7518C370.907 19.3727 371.683 19.6832 372.304 19.6832C372.769 19.6832 373.39 19.528 373.856 19.0623L385.964 9.28302L414.525 33.1879C414.991 33.4983 415.457 33.8088 416.078 33.8088C416.698 33.8088 417.475 33.4983 417.94 32.8774C418.872 31.7908 418.716 30.3938 417.63 29.4625L389.689 6.02325L400.089 -2.51419L431.29 30.8595C431.755 31.3252 432.376 31.6356 432.997 31.6356C433.618 31.6356 434.239 31.4804 434.705 31.0147C435.636 30.0834 435.791 28.5311 434.86 27.5997L403.815 -5.46349L435.17 -31.0759C436.257 -31.852 436.412 -33.4042 435.481 -34.4908C434.705 -35.5774 433.152 -35.7326 432.066 -34.8013L416.388 -22.0727L397.45 -42.4074C397.295 -42.5626 396.985 -42.8731 396.674 -42.8731L364.077 -58.2405L365.939 -62.2764C369.044 -68.9511 367.336 -76.8677 361.748 -81.6797L358.954 -84.1633L394.346 -142.994C394.967 -144.081 394.656 -145.633 393.57 -146.254C392.483 -146.875 390.931 -146.564 390.31 -145.478L355.384 -87.423L310.368 -125.919C308.661 -127.316 306.177 -127.161 304.625 -125.454C303.228 -123.746 303.383 -121.262 305.091 -119.71L356.626 -75.6258C359.42 -73.1422 360.351 -69.2615 358.644 -65.8466L270.32 121.046L268.457 125.082L171.441 330.291L155.763 314.148C155.452 313.837 155.142 313.682 154.831 313.372L123.32 295.831C123.941 295.676 124.407 295.21 124.717 294.589L129.995 284.189C130.15 284.034 130.15 283.879 130.15 283.723L152.969 191.829C153.124 191.208 152.969 190.587 152.658 189.967C152.348 189.346 151.727 189.035 151.106 188.88L77.6838 171.805C76.442 171.495 75.045 172.271 74.7345 173.668C74.424 174.91 75.2002 176.307 76.5972 176.617L147.691 193.071L125.494 282.326L120.371 292.571C120.061 293.192 120.061 293.658 120.216 294.279L63.403 262.768L85.1347 220.546C86.8422 217.442 86.9974 213.716 85.9108 210.301C84.669 206.886 82.3406 204.247 79.0808 202.695L57.1939 192.761C55.9521 192.14 54.5551 192.761 53.9342 194.003C53.3132 195.244 53.9341 196.641 55.176 197.262L77.0629 207.197C79.0808 208.128 80.6331 209.836 81.4092 211.854C82.1854 214.027 82.0301 216.2 80.9436 218.218L59.2119 260.439L-18.2462 217.286C-20.2641 216.2 -22.5925 216.976 -23.6791 218.839C-24.7657 220.857 -23.9895 223.185 -22.1268 224.272L150.33 320.202L167.56 337.897L167.715 338.053L138.688 399.522C137.756 401.54 138.533 404.024 140.551 404.955C141.171 405.266 141.637 405.421 142.258 405.421C143.81 405.421 145.207 404.49 145.983 403.093L172.217 347.677L281.651 408.37C282.272 408.681 282.893 408.836 283.669 408.836C285.066 408.836 286.463 408.06 287.24 406.818C288.326 404.8 287.55 402.472 285.687 401.385L175.787 340.381L250.761 181.584L280.565 196.641L237.878 270.063C237.257 271.15 237.567 272.702 238.809 273.323C239.119 273.478 239.585 273.634 240.051 273.634C240.827 273.634 241.758 273.168 242.224 272.392L261.472 239.329L292.207 257.024L270.941 295.676C268.457 300.177 270.009 305.766 274.356 308.404L327.754 341.468C329.306 342.399 331.013 342.865 332.876 342.865C333.652 342.865 334.584 342.709 335.36 342.554C337.843 341.933 340.017 340.071 341.258 337.897L362.99 297.539L388.137 311.975C390.62 313.372 392.328 315.7 392.949 318.339C393.57 321.133 393.259 323.927 391.707 326.255L367.336 365.217C367.181 365.372 367.181 365.528 367.026 365.683L355.694 398.436C355.229 399.678 356.005 401.075 357.247 401.54C357.557 401.695 357.712 401.695 358.023 401.695C358.954 401.695 360.041 401.075 360.351 399.988L371.527 367.546L395.743 328.894C397.916 325.324 398.537 321.288 397.606 317.252C396.674 313.216 394.035 309.957 390.465 307.783L298.726 255.006L314.249 226.755C314.87 225.513 314.404 224.116 313.318 223.496C312.076 222.875 310.679 223.34 310.058 224.427L294.535 252.523L263.8 234.827L286.153 196.486C286.463 195.865 286.619 195.244 286.308 194.623C286.153 194.002 285.687 193.382 285.066 193.071L252.934 176.928L275.598 128.807L324.96 153.799C325.27 153.954 325.736 154.109 326.046 154.109C326.201 154.109 326.201 154.109 326.357 154.109L340.172 152.712L431.755 155.972H431.911C433.152 155.972 434.239 154.885 434.394 153.644C434.394 152.247 433.463 151.16 432.066 151.16L342.655 147.9L344.518 106.92L361.748 75.72L412.973 77.4274L412.507 112.043L396.519 111.732C395.277 111.732 394.035 112.819 394.035 114.061C394.035 115.458 395.122 116.544 396.364 116.544L413.749 117.01H415.612L441.69 117.631C442.932 117.631 444.018 116.544 444.173 115.303C444.329 113.906 443.242 112.819 442 112.819ZM296.553 259.198L358.799 295.055L337.067 335.569C336.446 336.811 335.36 337.587 334.118 337.897C332.876 338.208 331.479 338.053 330.392 337.276L276.995 304.213C274.821 302.816 274.045 300.177 275.287 297.849L296.553 259.198Z" fill="white" stroke="#DAD7D7" stroke-width="0.5206" stroke-miterlimit="10"/>
<path d="M71.4494 31.0096L62.1611 38.5312L70.0735 48.302L79.3618 40.7803L71.4494 31.0096Z" fill="#E2E0E1"/>
<path d="M94.1455 33.7585L85.2637 41.7559L93.6765 51.0991L102.558 43.1017L94.1455 33.7585Z" fill="#E2E0E1"/>
<path d="M118.37 -3.33828L107.182 6.73633L112.998 13.1959L124.187 3.12125L118.37 -3.33828Z" fill="#E2E0E1"/>
<path d="M337.222 151.628L432.996 205.646V153.956L342.965 150.23L337.222 151.628Z" fill="#E2E0E1"/>
<path d="M380.065 25.4289L384.566 19.6855L417.008 40.3307C417.008 40.3307 419.337 35.053 419.958 35.2082C420.579 35.3634 441.068 47.0054 441.068 47.0054L437.809 59.734L380.065 25.4289Z" fill="#E2E0E1"/>
<path d="M369.509 78.9824L369.044 101.801L384.411 102.732L383.635 123.222L346.536 122.756L345.294 144.643L436.878 148.834L433.618 124.774L396.208 123.843L396.984 102.887L413.594 103.508L413.749 79.7586L369.509 78.9824Z" fill="#E2E0E1"/>
<path d="M285.377 178.949L292.673 183.451L297.64 175.534L290.499 171.498L285.377 178.949Z" fill="#E2E0E1"/>
<path d="M317.354 162.184L311.145 173.515L317.354 177.241L323.407 165.909L317.354 162.184Z" fill="#E2E0E1"/>
<path d="M66.0421 148.059L76.9079 160.788L83.2722 154.889L72.5616 142.781L66.0421 148.059Z" fill="#E2E0E1"/>
<path d="M228.099 33.0348L232.755 36.7602L242.69 27.4466L237.567 22.9451L228.099 33.0348Z" fill="#E2E0E1"/>
<path d="M351.97 10.5271L386.12 -19.4316L391.397 -14.7748L378.514 -3.90899L380.687 1.05825L363.767 15.6495L351.97 10.5271Z" fill="#E2E0E1"/>
</g>
</svg>
