<svg width="16" height="16" viewBox="0 0 16 16" fill="none" xmlns="http://www.w3.org/2000/svg">
<path fill-rule="evenodd" clip-rule="evenodd" d="M8.00009 13.3328C5.8878 13.3328 4.08331 13.0183 4.08331 11.7589C4.08331 10.4996 5.87606 9.40332 8.00009 9.40332C10.1124 9.40332 11.9169 10.4893 11.9169 11.748C11.9169 13.0067 10.1241 13.3328 8.00009 13.3328Z" stroke="white" stroke-width="1.2" stroke-linecap="round" stroke-linejoin="round"/>
<path fill-rule="evenodd" clip-rule="evenodd" d="M7.99978 7.60815C9.38624 7.60815 10.5105 6.50224 10.5105 5.13765C10.5105 3.77306 9.38624 2.6665 7.99978 2.6665C6.61332 2.6665 5.48902 3.77306 5.48902 5.13765C5.48511 6.4971 6.60028 7.60366 7.98217 7.60815H7.99978Z" stroke="white" stroke-width="1.2" stroke-linecap="round" stroke-linejoin="round"/>
<path d="M12.1672 6.92912C12.9739 6.71667 13.5686 5.99265 13.5686 5.13064C13.5686 4.2314 12.921 3.48043 12.0589 3.30713" stroke="#B4AEAB" stroke-width="1.2" stroke-linecap="round" stroke-linejoin="round"/>
<path d="M12.5459 8.95312C13.6898 8.95312 14.6667 9.71629 14.6667 10.3979C14.6667 10.7991 14.3295 11.2362 13.8182 11.3543" stroke="#B4AEAB" stroke-width="1.2" stroke-linecap="round" stroke-linejoin="round"/>
<path d="M3.83375 6.92912C3.0264 6.71667 2.43164 5.99265 2.43164 5.13064C2.43164 4.2314 3.07987 3.48043 3.94136 3.30713" stroke="#B4AEAB" stroke-width="1.2" stroke-linecap="round" stroke-linejoin="round"/>
<path d="M3.45409 8.95312C2.31023 8.95312 1.33331 9.71629 1.33331 10.3979C1.33331 10.7991 1.67047 11.2362 2.18241 11.3543" stroke="#B4AEAB" stroke-width="1.2" stroke-linecap="round" stroke-linejoin="round"/>
</svg>
