<svg width="16" height="16" viewBox="0 0 16 16" fill="none" xmlns="http://www.w3.org/2000/svg">
<path fill-rule="evenodd" clip-rule="evenodd" d="M8.00009 13.333C5.8878 13.333 4.08331 13.0185 4.08331 11.7592C4.08331 10.4999 5.87606 9.40356 8.00009 9.40356C10.1124 9.40356 11.9169 10.4896 11.9169 11.7483C11.9169 13.0069 10.1241 13.333 8.00009 13.333Z" stroke="white" stroke-width="1.5" stroke-linecap="round" stroke-linejoin="round"/>
<path fill-rule="evenodd" clip-rule="evenodd" d="M7.99978 7.60828C9.38624 7.60828 10.5105 6.50236 10.5105 5.13777C10.5105 3.77319 9.38624 2.66663 7.99978 2.66663C6.61332 2.66663 5.48902 3.77319 5.48902 5.13777C5.48511 6.49722 6.60028 7.60378 7.98217 7.60828H7.99978Z" stroke="white" stroke-width="1.5" stroke-linecap="round" stroke-linejoin="round"/>
<path d="M12.1672 6.92924C12.9739 6.71679 13.5686 5.99278 13.5686 5.13076C13.5686 4.23152 12.921 3.48055 12.0589 3.30725" stroke="#B4AEAB" stroke-width="1.5" stroke-linecap="round" stroke-linejoin="round"/>
<path d="M12.5459 8.95312C13.6898 8.95312 14.6667 9.71629 14.6667 10.3979C14.6667 10.7991 14.3295 11.2362 13.8182 11.3543" stroke="#B4AEAB" stroke-width="1.5" stroke-linecap="round" stroke-linejoin="round"/>
<path d="M3.83375 6.92924C3.0264 6.71679 2.43164 5.99278 2.43164 5.13076C2.43164 4.23152 3.07987 3.48055 3.94136 3.30725" stroke="#B4AEAB" stroke-width="1.5" stroke-linecap="round" stroke-linejoin="round"/>
<path d="M3.45409 8.95312C2.31023 8.95312 1.33331 9.71629 1.33331 10.3979C1.33331 10.7991 1.67047 11.2362 2.18241 11.3543" stroke="#B4AEAB" stroke-width="1.5" stroke-linecap="round" stroke-linejoin="round"/>
</svg>
