<svg width="24" height="24" viewBox="0 0 24 24" fill="none" xmlns="http://www.w3.org/2000/svg">
<circle cx="14" cy="4" r="1" fill="white"/>
<path d="M5 17L10 18L10.75 16.5M16 21V17L12 14L13 8M13 8L8 9V12M13 8L16 11L19 12M13 4C13 4.26522 13.1054 4.51957 13.2929 4.70711C13.4804 4.89464 13.7348 5 14 5C14.2652 5 14.5196 4.89464 14.7071 4.70711C14.8946 4.51957 15 4.26522 15 4C15 3.73478 14.8946 3.48043 14.7071 3.29289C14.5196 3.10536 14.2652 3 14 3C13.7348 3 13.4804 3.10536 13.2929 3.29289C13.1054 3.48043 13 3.73478 13 4Z" stroke="white" stroke-width="1.3" stroke-linecap="round" stroke-linejoin="round"/>
</svg>
