<svg width="24" height="24" viewBox="0 0 24 24" fill="none" xmlns="http://www.w3.org/2000/svg">
<path d="M10 17C10 17.7956 9.68393 18.5587 9.12132 19.1213C8.55871 19.6839 7.79565 20 7 20C6.20435 20 5.44129 19.6839 4.87868 19.1213C4.31607 18.5587 4 17.7956 4 17C4 16.2044 4.31607 15.4413 4.87868 14.8787C5.44129 14.3161 6.20435 14 7 14C7.79565 14 8.55871 14.3161 9.12132 14.8787C9.68393 15.4413 10 16.2044 10 17ZM10 17V4H20V17M20 17C20 17.7956 19.6839 18.5587 19.1213 19.1213C18.5587 19.6839 17.7956 20 17 20C16.2044 20 15.4413 19.6839 14.8787 19.1213C14.3161 18.5587 14 17.7956 14 17C14 16.2044 14.3161 15.4413 14.8787 14.8787C15.4413 14.3161 16.2044 14 17 14C17.7956 14 18.5587 14.3161 19.1213 14.8787C19.6839 15.4413 20 16.2044 20 17ZM10 8H20" stroke="white" stroke-width="1.3" stroke-linecap="round" stroke-linejoin="round"/>
</svg>
