<svg width="24" height="24" viewBox="0 0 24 24" fill="none" xmlns="http://www.w3.org/2000/svg">
<path d="M12 19.7778H17.0625C18.1068 19.7778 19.1083 19.3681 19.8467 18.6388C20.5852 17.9094 21 16.9203 21 15.8889C21 14.8575 20.5852 13.8683 19.8467 13.139C19.1083 12.4097 18.1068 12 17.0625 12H8.0625C7.01821 12 6.01669 11.5903 5.27827 10.861C4.53984 10.1317 4.125 9.14251 4.125 8.11111C4.125 7.07971 4.53984 6.09056 5.27827 5.36125C6.01669 4.63194 7.01821 4.22222 8.0625 4.22222H12M3 19.7778C3 20.3671 3.23705 20.9324 3.65901 21.3491C4.08097 21.7659 4.65326 22 5.25 22C5.84674 22 6.41903 21.7659 6.84099 21.3491C7.26295 20.9324 7.5 20.3671 7.5 19.7778C7.5 19.1884 7.26295 18.6232 6.84099 18.2064C6.41903 17.7897 5.84674 17.5556 5.25 17.5556C4.65326 17.5556 4.08097 17.7897 3.65901 18.2064C3.23705 18.6232 3 19.1884 3 19.7778ZM16.5 4.22222C16.5 4.81159 16.7371 5.37682 17.159 5.79357C17.581 6.21032 18.1533 6.44444 18.75 6.44444C19.3467 6.44444 19.919 6.21032 20.341 5.79357C20.7629 5.37682 21 4.81159 21 4.22222C21 3.63285 20.7629 3.06762 20.341 2.65087C19.919 2.23413 19.3467 2 18.75 2C18.1533 2 17.581 2.23413 17.159 2.65087C16.7371 3.06762 16.5 3.63285 16.5 4.22222Z" stroke="white" stroke-width="1.3" stroke-linecap="round" stroke-linejoin="round"/>
</svg>
