<svg width="25" height="24" viewBox="0 0 25 24" fill="none" xmlns="http://www.w3.org/2000/svg">
<path d="M12.5 20.5313H19.875C20.5712 20.5313 21.2389 20.2604 21.7312 19.7783C22.2234 19.2961 22.5 18.6422 22.5 17.9603C22.5 17.2784 22.2234 16.6245 21.7312 16.1424C21.2389 15.6602 20.5712 15.3893 19.875 15.3893H6.875C6.17881 15.3893 5.51113 15.1185 5.01885 14.6363C4.52656 14.1542 4.25 13.5002 4.25 12.8184M6.5 20.5313C6.5 20.9209 6.65804 21.2946 6.93934 21.5701C7.22064 21.8456 7.60218 22.0004 8 22.0004C8.39782 22.0004 8.77936 21.8456 9.06066 21.5701C9.34196 21.2946 9.5 20.9209 9.5 20.5313C9.5 20.1416 9.34196 19.768 9.06066 19.4924C8.77936 19.2169 8.39782 19.0622 8 19.0622C7.60218 19.0622 7.22064 19.2169 6.93934 19.4924C6.65804 19.768 6.5 20.1416 6.5 20.5313Z" stroke="white" stroke-width="1.3" stroke-linecap="round" stroke-linejoin="round"/>
<path fill-rule="evenodd" clip-rule="evenodd" d="M6.07254 7.50009C6.07066 8.29058 6.03355 9.36878 6.54799 9.77181C7.02783 10.1477 7.36555 10.0509 8.2416 10.112C9.11828 10.1737 10.9685 12.6236 12.3948 11.8486C13.1306 11.2986 13.1853 10.1454 13.1853 7.50009C13.1853 4.85474 13.1306 3.70158 12.3948 3.15153C10.9685 2.37603 9.11828 4.82649 8.2416 4.88818C7.36555 4.9493 7.02783 4.85244 6.54799 5.22837C6.03355 5.63139 6.07066 6.7096 6.07254 7.50009Z" stroke="white" stroke-width="1.3" stroke-linecap="round" stroke-linejoin="round"/>
<path d="M20.2041 3.58203C21.9297 5.94197 21.9354 9.05492 20.2041 11.4195" stroke="white" stroke-width="1.3" stroke-linecap="round" stroke-linejoin="round"/>
<path d="M17.2166 5.13086C18.1039 6.60344 18.1039 8.40179 17.2166 9.86977" stroke="white" stroke-width="1.3" stroke-linecap="round" stroke-linejoin="round"/>
</svg>
