<svg width="24" height="24" viewBox="0 0 24 24" fill="none" xmlns="http://www.w3.org/2000/svg">
<path d="M10.25 20.5313H17.625C18.3212 20.5313 18.9889 20.2605 19.4812 19.7783C19.9734 19.2962 20.25 18.6422 20.25 17.9603C20.25 17.2785 19.9734 16.6245 19.4812 16.1424C18.9889 15.6602 18.3212 15.3894 17.625 15.3894H4.625C3 15.3894 2 14.4229 2 13C2 11.6816 3 10.5 4.625 10.5C6.375 10.5 9 10.5001 11 10.5001M4.25 20.5313C4.25 20.921 4.40804 21.2946 4.68934 21.5702C4.97064 21.8457 5.35218 22.0005 5.75 22.0005C6.14782 22.0005 6.52936 21.8457 6.81066 21.5702C7.09196 21.2946 7.25 20.921 7.25 20.5313C7.25 20.1417 7.09196 19.768 6.81066 19.4925C6.52936 19.217 6.14782 19.0622 5.75 19.0622C5.35218 19.0622 4.97064 19.217 4.68934 19.4925C4.40804 19.768 4.25 20.1417 4.25 20.5313Z" stroke="white" stroke-width="1.3" stroke-linecap="round" stroke-linejoin="round"/>
<path fill-rule="evenodd" clip-rule="evenodd" d="M18.8668 6.40056C18.8668 5.59021 18.2102 4.93359 17.4005 4.93359C16.5901 4.93359 15.9335 5.59021 15.9335 6.40056C15.9335 7.21031 16.5901 7.86693 17.4005 7.86693C18.2102 7.86693 18.8668 7.21031 18.8668 6.40056Z" stroke="white" stroke-width="1.3" stroke-linecap="round" stroke-linejoin="round"/>
<path fill-rule="evenodd" clip-rule="evenodd" d="M17.3997 13C16.6966 13 13 9.88234 13 6.62201C13 4.06961 14.9695 2 17.3997 2C19.8299 2 21.8 4.06961 21.8 6.62201C21.8 9.88234 18.1028 13 17.3997 13Z" stroke="white" stroke-width="1.3" stroke-linecap="round" stroke-linejoin="round"/>
</svg>
