<svg width="25" height="24" viewBox="0 0 25 24" fill="none" xmlns="http://www.w3.org/2000/svg">
<path d="M7.5 8.5H4.5C4.23478 8.5 3.98043 8.59219 3.79289 8.75628C3.60536 8.92038 3.5 9.14294 3.5 9.375V11.125C3.5 11.3571 3.60536 11.5796 3.79289 11.7437C3.98043 11.9078 4.23478 12 4.5 12H6.5C6.76522 12 7.01957 12.0922 7.20711 12.2563C7.39464 12.4204 7.5 12.6429 7.5 12.875V14.625C7.5 14.8571 7.39464 15.0796 7.20711 15.2437C7.01957 15.4078 6.76522 15.5 6.5 15.5H3.5M17.5 15.5H20.5C20.7652 15.5 21.0196 15.4078 21.2071 15.2437C21.3946 15.0796 21.5 14.8571 21.5 14.625V12.875C21.5 12.6429 21.3946 12.4204 21.2071 12.2563C21.0196 12.0922 20.7652 12 20.5 12H18.5C18.2348 12 17.9804 11.9078 17.7929 11.7437C17.6054 11.5796 17.5 11.3571 17.5 11.125V9.375C17.5 9.14294 17.6054 8.92038 17.7929 8.75628C17.9804 8.59219 18.2348 8.5 18.5 8.5H21.5M11.5 15.5H13.5C14.0523 15.5 14.5 15.0523 14.5 14.5V9.5C14.5 8.94772 14.0523 8.5 13.5 8.5H11.5C10.9477 8.5 10.5 8.94772 10.5 9.5V14.5C10.5 15.0523 10.9477 15.5 11.5 15.5Z" stroke="white" stroke-width="1.3" stroke-linecap="round" stroke-linejoin="round"/>
<path d="M5 4C5.63497 2.77264 6.97535 2 8.79273 2H16.2052C18.028 2 19.3666 2.77264 20 4" stroke="white" stroke-width="1.3" stroke-linecap="round" stroke-linejoin="round"/>
<path d="M5 20C5.63497 21.2274 6.97535 22 8.79273 22H16.2052C18.028 22 19.3666 21.2274 20 20" stroke="white" stroke-width="1.3" stroke-linecap="round" stroke-linejoin="round"/>
</svg>
