<svg width="17" height="17" viewBox="0 0 17 17" fill="none" xmlns="http://www.w3.org/2000/svg">
<path d="M9.63333 8.21608L11 6.85329M7.33332 9.18C7.33332 9.53262 7.4738 9.87079 7.72385 10.1201C7.9739 10.3695 8.31303 10.5095 8.66666 10.5095C9.02028 10.5095 9.35942 10.3695 9.60947 10.1201C9.85951 9.87079 9.99999 9.53262 9.99999 9.18C9.99999 8.82738 9.85951 8.4892 9.60947 8.23987C9.35942 7.99053 9.02028 7.85045 8.66666 7.85045C8.31303 7.85045 7.9739 7.99053 7.72385 8.23987C7.4738 8.4892 7.33332 8.82738 7.33332 9.18ZM4.93332 13.8334C3.95876 13.061 3.24926 12.0054 2.90318 10.813C2.55709 9.62055 2.59154 8.35028 3.00175 7.17824C3.41197 6.00619 4.17764 4.9904 5.19265 4.27164C6.20766 3.55288 7.42174 3.16675 8.66666 3.16675C9.91157 3.16675 11.1257 3.55288 12.1407 4.27164C13.1557 4.9904 13.9213 6.00619 14.3316 7.17824C14.7418 8.35028 14.7762 9.62055 14.4301 10.813C14.084 12.0054 13.3746 13.061 12.4 13.8334H4.93332Z" stroke="white" stroke-width="1.3" stroke-linecap="round" stroke-linejoin="round"/>
</svg>
