<svg width="24" height="24" viewBox="0 0 24 24" fill="none" xmlns="http://www.w3.org/2000/svg">
<rect width="24" height="24" rx="12" fill="#F26322" fill-opacity="0.3"/>
<path d="M11.346 11.1667V4.91675C11.346 4.58523 11.2102 4.26729 10.9683 4.03286C10.7265 3.79844 10.3985 3.66675 10.0565 3.66675C9.71448 3.66675 9.38648 3.79844 9.14464 4.03286C8.90281 4.26729 8.76694 4.58523 8.76694 4.91675V12.0001L7.50319 10.7751C7.25005 10.53 6.91967 10.3739 6.56454 10.3316C6.20941 10.2893 5.84989 10.3633 5.54309 10.5417C5.25504 10.7091 5.04574 10.9789 4.95968 11.2935C4.87363 11.6082 4.91761 11.943 5.08229 12.2267C6.69766 15.0101 7.63902 16.6009 7.90725 17.0001C7.96319 17.0836 8.01936 17.1669 8.07575 17.2501C8.54559 17.9416 9.18526 18.5093 9.93732 18.902C10.6894 19.2947 11.5303 19.5002 12.3845 19.5001H12.2057H13.9251C15.2932 19.5001 16.6052 18.9733 17.5725 18.0356C18.5398 17.0979 19.0833 15.8262 19.0833 14.5001V10.7501C19.0833 10.4186 18.9474 10.1006 18.7056 9.8662C18.4638 9.63178 18.1358 9.50008 17.7937 9.50008C17.4517 9.50008 17.1237 9.63178 16.8819 9.8662C16.6401 10.1006 16.5042 10.4186 16.5042 10.7501M11.346 10.7501V9.08341C11.346 8.91926 11.3794 8.75672 11.4442 8.60506C11.509 8.4534 11.604 8.3156 11.7237 8.19953C11.8435 8.08346 11.9856 7.99138 12.1421 7.92857C12.2985 7.86575 12.4662 7.83341 12.6356 7.83341C12.8049 7.83341 12.9726 7.86575 13.1291 7.92857C13.2855 7.99138 13.4277 8.08346 13.5474 8.19953C13.6672 8.3156 13.7622 8.4534 13.827 8.60506C13.8918 8.75672 13.9251 8.91926 13.9251 9.08341V11.1667M13.9251 9.91675C13.9251 9.58523 14.061 9.26728 14.3028 9.03286C14.5447 8.79844 14.8727 8.66675 15.2147 8.66675C15.5567 8.66675 15.8847 8.79844 16.1265 9.03286C16.3683 9.26728 16.5042 9.58523 16.5042 9.91675V11.1667" stroke="#FF8953" stroke-width="1.5" stroke-linecap="round" stroke-linejoin="round"/>
</svg>
