<svg width="24" height="24" viewBox="0 0 24 24" fill="none" xmlns="http://www.w3.org/2000/svg">
<rect width="24" height="24" rx="12" fill="#F26322" fill-opacity="0.3"/>
<ellipse cx="13.6667" cy="5.33333" rx="0.833333" ry="0.833333" fill="#FF8953"/>
<path d="M6.16663 16.1667L10.3333 17L10.9583 15.75M15.3333 19.5V16.1667L12 13.6667L12.8333 8.66667M12.8333 8.66667L8.66663 9.5V12M12.8333 8.66667L15.3333 11.1667L17.8333 12M12.8333 5.33333C12.8333 5.55435 12.9211 5.76631 13.0774 5.92259C13.2337 6.07887 13.4456 6.16667 13.6666 6.16667C13.8876 6.16667 14.0996 6.07887 14.2559 5.92259C14.4122 5.76631 14.5 5.55435 14.5 5.33333C14.5 5.11232 14.4122 4.90036 14.2559 4.74408C14.0996 4.5878 13.8876 4.5 13.6666 4.5C13.4456 4.5 13.2337 4.5878 13.0774 4.74408C12.9211 4.90036 12.8333 5.11232 12.8333 5.33333Z" stroke="#FF8953" stroke-width="1.5" stroke-linecap="round" stroke-linejoin="round"/>
</svg>
