<svg width="16" height="17" viewBox="0 0 16 17" fill="none" xmlns="http://www.w3.org/2000/svg">
<path d="M8 13.6851H11.375C12.0712 13.6851 12.7389 13.412 13.2312 12.9258C13.7234 12.4395 14 11.7801 14 11.0925C14 10.4049 13.7234 9.74548 13.2312 9.25927C12.7389 8.77307 12.0712 8.49992 11.375 8.49992H5.375C4.67881 8.49992 4.01113 8.22677 3.51884 7.74057C3.02656 7.25436 2.75 6.59492 2.75 5.90733C2.75 5.21973 3.02656 4.56029 3.51884 4.07409C4.01113 3.58788 4.67881 3.31473 5.375 3.31473H8M2 13.6851C2 14.078 2.15804 14.4548 2.43934 14.7327C2.72064 15.0105 3.10218 15.1666 3.5 15.1666C3.89782 15.1666 4.27936 15.0105 4.56066 14.7327C4.84196 14.4548 5 14.078 5 13.6851C5 13.2922 4.84196 12.9154 4.56066 12.6375C4.27936 12.3597 3.89782 12.2036 3.5 12.2036C3.10218 12.2036 2.72064 12.3597 2.43934 12.6375C2.15804 12.9154 2 13.2922 2 13.6851ZM11 3.31473C11 3.70765 11.158 4.08447 11.4393 4.3623C11.7206 4.64013 12.1022 4.79622 12.5 4.79622C12.8978 4.79622 13.2794 4.64013 13.5607 4.3623C13.842 4.08447 14 3.70765 14 3.31473C14 2.92182 13.842 2.545 13.5607 2.26717C13.2794 1.98934 12.8978 1.83325 12.5 1.83325C12.1022 1.83325 11.7206 1.98934 11.4393 2.26717C11.158 2.545 11 2.92182 11 3.31473Z" stroke="white" stroke-width="1.3" stroke-linecap="round" stroke-linejoin="round"/>
</svg>
