<svg width="17" height="17" viewBox="0 0 17 17" fill="none" xmlns="http://www.w3.org/2000/svg">
<path d="M9.46668 8.21608L10.8333 6.85329M7.16667 9.18C7.16667 9.53262 7.30714 9.87079 7.55719 10.1201C7.80724 10.3695 8.14638 10.5095 8.5 10.5095C8.85362 10.5095 9.19276 10.3695 9.44281 10.1201C9.69286 9.87079 9.83333 9.53262 9.83333 9.18C9.83333 8.82738 9.69286 8.4892 9.44281 8.23987C9.19276 7.99053 8.85362 7.85045 8.5 7.85045C8.14638 7.85045 7.80724 7.99053 7.55719 8.23987C7.30714 8.4892 7.16667 8.82738 7.16667 9.18ZM4.76667 13.8334C3.7921 13.061 3.08261 12.0054 2.73652 10.813C2.39043 9.62055 2.42488 8.35028 2.8351 7.17824C3.24531 6.00619 4.01098 4.9904 5.02599 4.27164C6.041 3.55288 7.25509 3.16675 8.5 3.16675C9.74491 3.16675 10.959 3.55288 11.974 4.27164C12.989 4.9904 13.7547 6.00619 14.1649 7.17824C14.5751 8.35028 14.6096 9.62055 14.2635 10.813C13.9174 12.0054 13.2079 13.061 12.2333 13.8334H4.76667Z" stroke="white" stroke-width="1.3" stroke-linecap="round" stroke-linejoin="round"/>
</svg>
