<svg width="64" height="64" viewBox="0 0 64 64" fill="none" xmlns="http://www.w3.org/2000/svg">
<path d="M18.6666 56L24 45.3333M34.6666 56V45.3333L26.6666 37.3333M26.6666 37.3333L29.3333 21.3333M26.6666 37.3333L21.7946 34.0853C20.8788 33.4751 20.1743 32.5965 19.7776 31.57C19.3808 30.5436 19.3113 29.4195 19.5786 28.352L20.3252 25.3733C20.6135 24.22 21.2789 23.196 22.2157 22.464C23.1525 21.7321 24.3071 21.3341 25.4959 21.3333H29.3333M29.3333 21.3333L37.3333 32L45.3333 37.3333M29.3333 21.3333L39.9999 24L47.9999 18.6667M45.3333 32V56M42.6666 53.3333H48M29.3333 10.6667C29.3333 11.3739 29.6142 12.0522 30.1143 12.5523C30.6144 13.0524 31.2927 13.3333 32 13.3333C32.7072 13.3333 33.3855 13.0524 33.8856 12.5523C34.3857 12.0522 34.6666 11.3739 34.6666 10.6667C34.6666 9.95942 34.3857 9.28115 33.8856 8.78105C33.3855 8.28095 32.7072 8 32 8C31.2927 8 30.6144 8.28095 30.1143 8.78105C29.6142 9.28115 29.3333 9.95942 29.3333 10.6667Z" stroke="white" stroke-width="4" stroke-linecap="round" stroke-linejoin="round"/>
<ellipse cx="32" cy="10.6667" rx="2.66667" ry="2.66667" fill="white"/>
</svg>
