<svg width="64" height="64" viewBox="0 0 64 64" fill="none" xmlns="http://www.w3.org/2000/svg">
<path d="M36 56L32 44L22.6667 38.2005M22.6667 38.2005L28 24M22.6667 38.2005L24 46.6667L21.3334 56M28 24L38.6667 28L44 24M28 24L33.3334 34.6667L40 36" stroke="white" stroke-width="4" stroke-linecap="round" stroke-linejoin="round"/>
<path d="M28 13.3332C28 14.0404 28.281 14.7187 28.781 15.2188C29.2811 15.7189 29.9594 15.9998 30.6667 15.9998C31.3739 15.9998 32.0522 15.7189 32.5523 15.2188C33.0524 14.7187 33.3333 14.0404 33.3333 13.3332C33.3333 12.6259 33.0524 11.9476 32.5523 11.4476C32.0522 10.9475 31.3739 10.6665 30.6667 10.6665C29.9594 10.6665 29.2811 10.9475 28.781 11.4476C28.281 11.9476 28 12.6259 28 13.3332Z" fill="white" stroke="white" stroke-width="4" stroke-linecap="round" stroke-linejoin="round"/>
</svg>
