<svg width="64" height="64" viewBox="0 0 64 64" fill="none" xmlns="http://www.w3.org/2000/svg">
<path d="M30.0152 45.4858C29.8782 46.5819 30.6557 47.5814 31.7517 47.7184C32.8478 47.8554 33.8474 47.078 33.9844 45.982L30.0152 45.4858ZM33.1998 36.1339L35.1844 36.382C35.2676 35.7158 35.0111 35.0523 34.5014 34.6154L33.1998 36.1339ZM24.7998 28.9339L23.4982 27.4154C23.0549 27.7953 22.7998 28.35 22.7998 28.9339C22.7998 29.5177 23.0549 30.0724 23.4982 30.4524L24.7998 28.9339ZM33.1998 21.7339L34.614 20.3197C33.875 19.5807 32.6917 19.5352 31.8982 20.2154L33.1998 21.7339ZM39.1998 27.7339L37.7856 29.1481C38.0419 29.4044 38.3631 29.5863 38.7147 29.6742L39.1998 27.7339ZM43.5147 30.8742C44.5863 31.1421 45.6722 30.4905 45.9401 29.419C46.208 28.3474 45.5565 27.2615 44.4849 26.9936L43.5147 30.8742ZM33.9844 45.982L35.1844 36.382L31.2152 35.8858L30.0152 45.4858L33.9844 45.982ZM34.5014 34.6154L26.1014 27.4154L23.4982 30.4524L31.8982 37.6524L34.5014 34.6154ZM26.1014 30.4524L34.5014 23.2524L31.8982 20.2154L23.4982 27.4154L26.1014 30.4524ZM31.7856 23.1481L37.7856 29.1481L40.614 26.3197L34.614 20.3197L31.7856 23.1481ZM38.7147 29.6742L43.5147 30.8742L44.4849 26.9936L39.6849 25.7936L38.7147 29.6742Z" fill="white"/>
<path d="M36.7998 15.7335C36.7998 16.37 37.0527 16.9805 37.5027 17.4306C37.9528 17.8806 38.5633 18.1335 39.1998 18.1335C39.8363 18.1335 40.4468 17.8806 40.8969 17.4306C41.3469 16.9805 41.5998 16.37 41.5998 15.7335C41.5998 15.097 41.3469 14.4865 40.8969 14.0364C40.4468 13.5864 39.8363 13.3335 39.1998 13.3335C38.5633 13.3335 37.9528 13.5864 37.5027 14.0364C37.0527 14.4865 36.7998 15.097 36.7998 15.7335Z" fill="white"/>
<path d="M39.1998 13.3335V11.3335V13.3335ZM34.7998 15.7335C34.7998 16.9004 35.2634 18.0196 36.0885 18.8448L38.917 16.0163C38.8419 15.9413 38.7998 15.8396 38.7998 15.7335H34.7998ZM36.0885 18.8448C36.9137 19.6699 38.0329 20.1335 39.1998 20.1335V16.1335C39.0937 16.1335 38.992 16.0914 38.917 16.0163L36.0885 18.8448ZM39.1998 20.1335C40.3668 20.1335 41.4859 19.6699 42.3111 18.8448L39.4826 16.0163C39.4076 16.0914 39.3059 16.1335 39.1998 16.1335V20.1335ZM42.3111 18.8448C43.1362 18.0196 43.5998 16.9004 43.5998 15.7335H39.5998C39.5998 15.8396 39.5577 15.9413 39.4826 16.0163L42.3111 18.8448ZM43.5998 15.7335C43.5998 14.5665 43.1362 13.4474 42.3111 12.6222L39.4826 15.4507C39.5577 15.5257 39.5998 15.6274 39.5998 15.7335H43.5998ZM42.3111 12.6222C41.4859 11.7971 40.3668 11.3335 39.1998 11.3335V15.3335C39.3059 15.3335 39.4076 15.3756 39.4826 15.4507L42.3111 12.6222ZM39.1998 11.3335C38.0329 11.3335 36.9137 11.7971 36.0885 12.6222L38.917 15.4507C38.992 15.3756 39.0937 15.3335 39.1998 15.3335V11.3335ZM36.0885 12.6222C35.2634 13.4474 34.7998 14.5665 34.7998 15.7335H38.7998C38.7998 15.6274 38.8419 15.5257 38.917 15.4507L36.0885 12.6222Z" fill="white"/>
<ellipse cx="16.4" cy="43.3331" rx="8.4" ry="8.4" stroke="white" stroke-width="4" stroke-linecap="round" stroke-linejoin="round"/>
<ellipse cx="47.6002" cy="43.3331" rx="8.4" ry="8.4" stroke="white" stroke-width="4" stroke-linecap="round" stroke-linejoin="round"/>
</svg>
