<svg width="64" height="64" viewBox="0 0 64 64" fill="none" xmlns="http://www.w3.org/2000/svg">
<path d="M16 26.666L26.6667 21.333L36 29.3325L32 34.6656M8 44.6651C8.83011 45.0778 9.73998 45.3053 10.6667 45.3318C11.7053 45.3535 12.7337 45.1221 13.6629 44.6575C14.5921 44.193 15.3942 43.5092 16 42.6653C16.6058 41.8213 17.4079 41.1375 18.3371 40.673C19.2663 40.2084 20.2947 39.977 21.3333 39.9987C22.372 39.977 23.4003 40.2084 24.3295 40.673C25.2587 41.1375 26.0609 41.8213 26.6667 42.6653C27.2725 43.5092 28.0746 44.193 29.0038 44.6575C29.933 45.1221 30.9613 45.3535 32 45.3318C33.0387 45.3535 34.067 45.1221 34.9962 44.6575C35.9254 44.193 36.7275 43.5092 37.3333 42.6653C37.9391 41.8213 38.7413 41.1375 39.6705 40.673C40.5997 40.2084 41.628 39.977 42.6667 39.9987C43.7053 39.977 44.7337 40.2084 45.6629 40.673C46.5921 41.1375 47.3942 41.8213 48 42.6653C48.6058 43.5092 49.4079 44.193 50.3371 44.6575C51.2663 45.1221 52.2947 45.3535 53.3333 45.3318C54.26 45.3053 55.1699 45.0778 56 44.6651" stroke="white" stroke-width="4" stroke-linecap="round" stroke-linejoin="round"/>
<path d="M40 21.333C40 22.0402 40.281 22.7185 40.781 23.2185C41.2811 23.7186 41.9594 23.9995 42.6667 23.9995C43.3739 23.9995 44.0522 23.7186 44.5523 23.2185C45.0524 22.7185 45.3333 22.0402 45.3333 21.333C45.3333 20.6258 45.0524 19.9476 44.5523 19.4475C44.0522 18.9474 43.3739 18.6665 42.6667 18.6665C41.9594 18.6665 41.2811 18.9474 40.781 19.4475C40.281 19.9476 40 20.6258 40 21.333Z" fill="white" stroke="white" stroke-width="4" stroke-linecap="round" stroke-linejoin="round"/>
</svg>
