<svg width="64" height="64" viewBox="0 0 64 64" fill="none" xmlns="http://www.w3.org/2000/svg">
<ellipse cx="34.6667" cy="10.6667" rx="2.66667" ry="2.66667" fill="white"/>
<path d="M34.6667 8V6V8ZM17.0667 54.8C16.4039 55.6837 16.583 56.9373 17.4667 57.6C18.3503 58.2627 19.6039 58.0837 20.2667 57.2L17.0667 54.8ZM28.2667 46.5333C28.9294 45.6497 28.7503 44.3961 27.8667 43.7333C26.983 43.0706 25.7294 43.2497 25.0667 44.1333L28.2667 46.5333ZM40.8778 56.8944C41.3718 57.8824 42.5731 58.2828 43.5611 57.7889C44.5491 57.2949 44.9495 56.0935 44.4555 55.1056L40.8778 56.8944ZM37.3333 45.3333L39.1222 44.4389C39.0261 44.2466 38.8995 44.0711 38.7475 43.9191L37.3333 45.3333ZM29.3333 37.3333L27.3605 37.0045C27.2544 37.6417 27.4624 38.2908 27.9191 38.7475L29.3333 37.3333ZM32 21.3333L33.4142 19.9191C32.9175 19.4224 32.1965 19.2227 31.5149 19.393L32 21.3333ZM14.3359 30.8906C13.7232 31.8097 13.9715 33.0514 14.8906 33.6641C15.8097 34.2768 17.0514 34.0285 17.6641 33.1094L14.3359 30.8906ZM21.3333 24L20.8483 22.0597C20.3656 22.1804 19.9452 22.4766 19.6692 22.8906L21.3333 24ZM40 29.3333L38.5858 30.7475C38.8053 30.9671 39.073 31.1325 39.3675 31.2307L40 29.3333ZM47.3675 33.8974C48.4154 34.2467 49.5481 33.6803 49.8974 32.6325C50.2467 31.5846 49.6803 30.4519 48.6325 30.1026L47.3675 33.8974ZM30 10.6667C30 11.9043 30.4917 13.0913 31.3668 13.9665L34.1953 11.1381C34.0702 11.013 34 10.8435 34 10.6667H30ZM31.3668 13.9665C32.242 14.8417 33.429 15.3333 34.6667 15.3333V11.3333C34.4899 11.3333 34.3203 11.2631 34.1953 11.1381L31.3668 13.9665ZM34.6667 15.3333C35.9043 15.3333 37.0913 14.8417 37.9665 13.9665L35.1381 11.1381C35.013 11.2631 34.8435 11.3333 34.6667 11.3333V15.3333ZM37.9665 13.9665C38.8417 13.0913 39.3333 11.9043 39.3333 10.6667H35.3333C35.3333 10.8435 35.2631 11.013 35.1381 11.1381L37.9665 13.9665ZM39.3333 10.6667C39.3333 9.42899 38.8417 8.242 37.9665 7.36683L35.1381 10.1953C35.2631 10.3203 35.3333 10.4899 35.3333 10.6667H39.3333ZM37.9665 7.36683C37.0913 6.49167 35.9043 6 34.6667 6V10C34.8435 10 35.013 10.0702 35.1381 10.1953L37.9665 7.36683ZM34.6667 6C33.429 6 32.242 6.49167 31.3668 7.36683L34.1953 10.1953C34.3203 10.0702 34.4899 10 34.6667 10V6ZM31.3668 7.36683C30.4917 8.242 30 9.42899 30 10.6667H34C34 10.4899 34.0702 10.3203 34.1953 10.1953L31.3668 7.36683ZM20.2667 57.2L28.2667 46.5333L25.0667 44.1333L17.0667 54.8L20.2667 57.2ZM44.4555 55.1056L39.1222 44.4389L35.5445 46.2278L40.8778 56.8944L44.4555 55.1056ZM38.7475 43.9191L30.7475 35.9191L27.9191 38.7475L35.9191 46.7475L38.7475 43.9191ZM31.3061 37.6621L33.9728 21.6621L30.0272 21.0045L27.3605 37.0045L31.3061 37.6621ZM17.6641 33.1094L22.9974 25.1094L19.6692 22.8906L14.3359 30.8906L17.6641 33.1094ZM21.8184 25.9403L32.4851 23.2736L31.5149 19.393L20.8483 22.0597L21.8184 25.9403ZM30.5858 22.7475L38.5858 30.7475L41.4142 27.9191L33.4142 19.9191L30.5858 22.7475ZM39.3675 31.2307L47.3675 33.8974L48.6325 30.1026L40.6325 27.436L39.3675 31.2307Z" fill="white"/>
</svg>
