<svg width="64" height="64" viewBox="0 0 64 64" fill="none" xmlns="http://www.w3.org/2000/svg">
<ellipse cx="34.6667" cy="7.99992" rx="2.66667" ry="2.66667" fill="white"/>
<path d="M10.6666 53.3333H22.6666L27.1666 44.8627M49.6666 53.3333L46.6666 39.2156H31.6666L34.6666 19.4509M34.6666 19.4509L10.6666 25.098M34.6666 19.4509L58.6666 27.9215M31.6666 8.15678C31.6666 8.90563 31.9827 9.6238 32.5453 10.1533C33.1079 10.6828 33.871 10.9803 34.6666 10.9803C35.4623 10.9803 36.2253 10.6828 36.7879 10.1533C37.3506 9.6238 37.6666 8.90563 37.6666 8.15678C37.6666 7.40793 37.3506 6.68976 36.7879 6.16024C36.2253 5.63073 35.4623 5.33325 34.6666 5.33325C33.871 5.33325 33.1079 5.63073 32.5453 6.16024C31.9827 6.68976 31.6666 7.40793 31.6666 8.15678Z" stroke="white" stroke-width="4" stroke-linecap="round" stroke-linejoin="round"/>
</svg>
