<svg width="24" height="24" viewBox="0 0 24 24" fill="none" xmlns="http://www.w3.org/2000/svg">
<rect width="24" height="24" rx="8" fill="#1ED760"/>
<path d="M19.8567 10.7745C19.6005 10.7745 19.4429 10.7083 19.2212 10.5758C15.7136 8.41019 9.44231 7.89045 5.38296 9.06242C5.20561 9.11338 4.98392 9.19491 4.74746 9.19491C4.09717 9.19491 3.59961 8.67006 3.59961 7.99236C3.59961 7.29936 4.01343 6.90701 4.4568 6.77452C6.19089 6.24968 8.13189 6 10.2453 6C13.8416 6 17.6103 6.77452 20.3641 8.43567C20.7484 8.66497 20.9996 8.98089 20.9996 9.58726C20.9996 10.2803 20.4577 10.7745 19.8567 10.7745ZM18.3295 14.6573C18.0733 14.6573 17.9009 14.5401 17.7236 14.4433C14.6446 12.558 10.0532 11.7987 5.9692 12.9452C5.73274 13.0115 5.60465 13.0777 5.38296 13.0777C4.85584 13.0777 4.42724 12.6344 4.42724 12.0892C4.42724 11.5439 4.68341 11.1822 5.19083 11.0344C6.56037 10.6369 7.95946 10.3414 10.0088 10.3414C13.2061 10.3414 16.2949 11.1618 18.7285 12.6599C19.1276 12.9045 19.2852 13.2204 19.2852 13.6637C19.2803 14.214 18.8665 14.6573 18.3295 14.6573ZM17.0043 18C16.7974 18 16.6693 17.9338 16.4772 17.8166C13.4031 15.9006 9.82656 15.8191 6.29434 16.5682C6.10221 16.6191 5.85097 16.7006 5.7081 16.7006C5.23024 16.7006 4.92973 16.3083 4.92973 15.8955C4.92973 15.3707 5.23024 15.121 5.59972 15.0395C9.63443 14.1172 13.7578 14.1987 17.2753 16.3745C17.5758 16.5732 17.7531 16.7516 17.7531 17.2153C17.7531 17.679 17.4033 18 17.0043 18Z" fill="white"/>
</svg>
