<svg width="24" height="24" viewBox="0 0 24 24" fill="none" xmlns="http://www.w3.org/2000/svg">
<path d="M20 9C20 9 19.3878 16.4314 19.0326 19.5618C18.8635 21.0569 17.9198 21.933 16.374 21.9605C13.4325 22.0124 10.4875 22.0157 7.54704 21.955C6.0599 21.9252 5.13199 21.0381 4.96625 19.5695C4.60884 16.4115 4 9 4 9" stroke="#FF4747" stroke-width="1.3" stroke-linecap="round" stroke-linejoin="round"/>
<path d="M10 17L10 12" stroke="#FF4747" stroke-width="1.3" stroke-linecap="round"/>
<path d="M14 17L14 12" stroke="#FF4747" stroke-width="1.3" stroke-linecap="round"/>
<path d="M21 6.5H3" stroke="#FF4747" stroke-width="1.3" stroke-linecap="round" stroke-linejoin="round"/>
<path d="M16 6L15.7297 4.31501C15.5629 3.53764 14.9979 3 14.354 3H9.64604C9.00209 3 8.43709 3.53764 8.27026 4.31501L8 6" stroke="#FF4747" stroke-width="1.3" stroke-linecap="round" stroke-linejoin="round"/>
</svg>
