<svg width="16" height="17" viewBox="0 0 16 17" fill="none" xmlns="http://www.w3.org/2000/svg">
<path d="M8 13.6852H11.375C12.0712 13.6852 12.7389 13.4121 13.2312 12.9259C13.7234 12.4397 14 11.7802 14 11.0926C14 10.405 13.7234 9.7456 13.2312 9.25939C12.7389 8.77319 12.0712 8.50004 11.375 8.50004H5.375C4.67881 8.50004 4.01113 8.22689 3.51884 7.74069C3.02656 7.25448 2.75 6.59505 2.75 5.90745C2.75 5.21985 3.02656 4.56041 3.51884 4.07421C4.01113 3.588 4.67881 3.31486 5.375 3.31486H8M2 13.6852C2 14.0781 2.15804 14.455 2.43934 14.7328C2.72064 15.0106 3.10218 15.1667 3.5 15.1667C3.89782 15.1667 4.27936 15.0106 4.56066 14.7328C4.84196 14.455 5 14.0781 5 13.6852C5 13.2923 4.84196 12.9155 4.56066 12.6377C4.27936 12.3598 3.89782 12.2037 3.5 12.2037C3.10218 12.2037 2.72064 12.3598 2.43934 12.6377C2.15804 12.9155 2 13.2923 2 13.6852ZM11 3.31486C11 3.70777 11.158 4.08459 11.4393 4.36242C11.7206 4.64025 12.1022 4.79634 12.5 4.79634C12.8978 4.79634 13.2794 4.64025 13.5607 4.36242C13.842 4.08459 14 3.70777 14 3.31486C14 2.92194 13.842 2.54512 13.5607 2.26729C13.2794 1.98946 12.8978 1.83337 12.5 1.83337C12.1022 1.83337 11.7206 1.98946 11.4393 2.26729C11.158 2.54512 11 2.92194 11 3.31486Z" stroke="white" stroke-width="1.3" stroke-linecap="round" stroke-linejoin="round"/>
</svg>
