<svg width="16" height="17" viewBox="0 0 16 17" fill="none" xmlns="http://www.w3.org/2000/svg">
<ellipse cx="9.33335" cy="3.16667" rx="0.666667" ry="0.666667" fill="white"/>
<path d="M3.33331 11.8333L6.66665 12.5L7.16665 11.5M10.6666 14.5V11.8333L7.99998 9.83333L8.66665 5.83333M8.66665 5.83333L5.33331 6.5V8.5M8.66665 5.83333L10.6666 7.83333L12.6666 8.5M8.66665 3.16667C8.66665 3.34348 8.73688 3.51305 8.86191 3.63807C8.98693 3.7631 9.1565 3.83333 9.33331 3.83333C9.51012 3.83333 9.67969 3.7631 9.80472 3.63807C9.92974 3.51305 9.99998 3.34348 9.99998 3.16667C9.99998 2.98986 9.92974 2.82029 9.80472 2.69526C9.67969 2.57024 9.51012 2.5 9.33331 2.5C9.1565 2.5 8.98693 2.57024 8.86191 2.69526C8.73688 2.82029 8.66665 2.98986 8.66665 3.16667Z" stroke="white" stroke-width="1.3" stroke-linecap="round" stroke-linejoin="round"/>
</svg>
