<svg width="32" height="32" viewBox="0 0 32 32" fill="none" xmlns="http://www.w3.org/2000/svg">
<rect width="32" height="32" rx="8" fill="url(#paint0_linear_1_8420)"/>
<path fill-rule="evenodd" clip-rule="evenodd" d="M22.5599 4.87695C22.4828 4.88404 21.7976 5.00548 21.7152 5.02232L12.2304 6.93612L12.2269 6.937C11.9796 6.9893 11.7854 7.07706 11.6356 7.20293C11.4548 7.35451 11.3546 7.56902 11.3165 7.819C11.3085 7.87218 11.2952 7.98033 11.2952 8.13988C11.2952 8.13988 11.2952 17.8303 11.2952 20.0109C11.2952 20.2884 11.2731 20.5578 11.0851 20.7874C10.8972 21.017 10.665 21.0861 10.3928 21.1411C10.1863 21.1828 9.97977 21.2244 9.77324 21.2661C8.98963 21.4239 8.47994 21.5311 8.01811 21.7102C7.57667 21.8813 7.24603 22.0993 6.98276 22.3759C6.46066 22.9228 6.2488 23.6648 6.32149 24.3597C6.38354 24.9527 6.65035 25.52 7.10864 25.9393C7.418 26.223 7.80448 26.4384 8.26011 26.5297C8.73257 26.6245 9.23606 26.5917 9.97179 26.4428C10.3636 26.3639 10.7306 26.2407 11.0798 26.0342C11.4255 25.8303 11.7216 25.5582 11.953 25.2266C12.1852 24.8942 12.335 24.5246 12.4174 24.1319C12.5025 23.7268 12.5229 23.3607 12.5229 22.9565V12.6607C12.5229 12.1093 12.6789 11.9639 13.1239 11.8558C13.1239 11.8558 21.0078 10.2655 21.3757 10.1937C21.8889 10.0953 22.1309 10.2416 22.1309 10.7797V17.8081C22.1309 18.0865 22.1283 18.3684 21.9386 18.5988C21.7506 18.8284 21.5184 18.8976 21.2463 18.9525C21.0397 18.9942 20.8332 19.0358 20.6266 19.0775C19.843 19.2353 19.3333 19.3425 18.8715 19.5216C18.4301 19.6927 18.0994 19.9107 17.8362 20.1873C17.3141 20.7342 17.0836 21.4762 17.1563 22.1711C17.2183 22.7641 17.5038 23.3315 17.962 23.7507C18.2714 24.0344 18.6579 24.2436 19.1135 24.3358C19.586 24.4306 20.0895 24.3969 20.8252 24.2489C21.217 24.17 21.584 24.0521 21.9332 23.8456C22.2789 23.6417 22.575 23.3696 22.8064 23.0381C23.0386 22.7056 23.1884 22.336 23.2709 21.9433C23.3559 21.5382 23.3595 21.1721 23.3595 20.7679V5.71551C23.3613 5.16947 23.0732 4.83263 22.5599 4.87695Z" fill="white"/>
<defs>
<linearGradient id="paint0_linear_1_8420" x1="16" y1="31.8767" x2="16" y2="0.689668" gradientUnits="userSpaceOnUse">
<stop stop-color="#FA233B"/>
<stop offset="1" stop-color="#FB5C74"/>
</linearGradient>
</defs>
</svg>
