<svg width="32" height="32" viewBox="0 0 32 32" fill="none" xmlns="http://www.w3.org/2000/svg">
<rect width="32" height="32" rx="8" fill="#1ED760"/>
<path d="M26.4759 14.366C26.1343 14.366 25.9242 14.2777 25.6286 14.1011C20.9518 11.2136 12.5901 10.5206 7.17761 12.0832C6.94114 12.1512 6.64556 12.2599 6.33027 12.2599C5.46323 12.2599 4.7998 11.5601 4.7998 10.6565C4.7998 9.73248 5.35156 9.20934 5.94273 9.0327C8.25484 8.33291 10.8428 8 13.6607 8C18.4558 8 23.4807 9.0327 27.1525 11.2476C27.6648 11.5533 27.9998 11.9745 27.9998 12.783C27.9998 13.707 27.2773 14.366 26.4759 14.366ZM24.4397 19.5431C24.0981 19.5431 23.8682 19.3868 23.6317 19.2578C19.5264 16.7439 13.4046 15.7316 7.95926 17.2603C7.64397 17.3486 7.47319 17.4369 7.17761 17.4369C6.47478 17.4369 5.90332 16.8459 5.90332 16.1189C5.90332 15.3919 6.24488 14.9096 6.92144 14.7125C8.74748 14.1826 10.6129 13.7885 13.3454 13.7885C17.6084 13.7885 21.7269 14.8824 24.9717 16.8798C25.5038 17.2059 25.714 17.6272 25.714 18.2183C25.7074 18.952 25.1556 19.5431 24.4397 19.5431ZM22.6727 24C22.3969 24 22.2261 23.9117 21.9699 23.7554C17.8712 21.2008 13.1024 21.0921 8.39278 22.0909C8.13661 22.1588 7.80162 22.2675 7.61113 22.2675C6.97398 22.2675 6.5733 21.7444 6.5733 21.1941C6.5733 20.4943 6.97398 20.1614 7.46662 20.0527C12.8462 18.8229 18.3441 18.9316 23.034 21.8327C23.4347 22.0977 23.6712 22.3355 23.6712 22.9537C23.6712 23.572 23.2048 24 22.6727 24Z" fill="white"/>
</svg>
