<svg width="32" height="32" viewBox="0 0 32 32" fill="none" xmlns="http://www.w3.org/2000/svg">
<rect width="32" height="32" rx="8" fill="#76B5FF" fill-opacity="0.3"/>
<path d="M4 16C4 17.5759 4.31039 19.1363 4.91345 20.5922C5.5165 22.0481 6.40042 23.371 7.51472 24.4853C8.62902 25.5996 9.95189 26.4835 11.4078 27.0866C12.8637 27.6896 14.4241 28 16 28C17.5759 28 19.1363 27.6896 20.5922 27.0866C22.0481 26.4835 23.371 25.5996 24.4853 24.4853C25.5996 23.371 26.4835 22.0481 27.0866 20.5922C27.6896 19.1363 28 17.5759 28 16C28 14.4241 27.6896 12.8637 27.0866 11.4078C26.4835 9.95189 25.5996 8.62902 24.4853 7.51472C23.371 6.40042 22.0481 5.5165 20.5922 4.91345C19.1363 4.31039 17.5759 4 16 4C14.4241 4 12.8637 4.31039 11.4078 4.91345C9.95189 5.5165 8.62902 6.40042 7.51472 7.51472C6.40042 8.62902 5.5165 9.95189 4.91345 11.4078C4.31039 12.8637 4 14.4241 4 16Z" fill="#76B5FF"/>
<path d="M19.3333 21.4C18.8988 20.9565 18.3802 20.6042 17.8078 20.3637C17.2355 20.1232 16.6209 19.9993 16 19.9993C15.3791 19.9993 14.7645 20.1232 14.1922 20.3637C13.6198 20.6042 13.1012 20.9565 12.6667 21.4" fill="#76B5FF"/>
<path d="M13.3333 12.3333C12.6667 13.6667 10 13.6667 9.33333 12.3333H13.3333Z" fill="#76B5FF"/>
<path d="M22.6667 12.3333C22 13.6667 19.3333 13.6667 18.6667 12.3333H22.6667Z" fill="#76B5FF"/>
<path d="M19.3333 21.4C18.8988 20.9565 18.3802 20.6042 17.8078 20.3637C17.2355 20.1232 16.6209 19.9993 16 19.9993C15.3791 19.9993 14.7645 20.1232 14.1922 20.3637C13.6198 20.6042 13.1012 20.9565 12.6667 21.4M13.3333 12.3333C12.6667 13.6667 10 13.6667 9.33333 12.3333M22.6667 12.3333C22 13.6667 19.3333 13.6667 18.6667 12.3333M4 16C4 17.5759 4.31039 19.1363 4.91345 20.5922C5.5165 22.0481 6.40042 23.371 7.51472 24.4853C8.62902 25.5996 9.95189 26.4835 11.4078 27.0866C12.8637 27.6896 14.4241 28 16 28C17.5759 28 19.1363 27.6896 20.5922 27.0866C22.0481 26.4835 23.371 25.5996 24.4853 24.4853C25.5996 23.371 26.4835 22.0481 27.0866 20.5922C27.6896 19.1363 28 17.5759 28 16C28 14.4241 27.6896 12.8637 27.0866 11.4078C26.4835 9.95189 25.5996 8.62902 24.4853 7.51472C23.371 6.40042 22.0481 5.5165 20.5922 4.91345C19.1363 4.31039 17.5759 4 16 4C14.4241 4 12.8637 4.31039 11.4078 4.91345C9.95189 5.5165 8.62902 6.40042 7.51472 7.51472C6.40042 8.62902 5.5165 9.95189 4.91345 11.4078C4.31039 12.8637 4 14.4241 4 16Z" stroke="white" stroke-width="1.5" stroke-linecap="round" stroke-linejoin="round"/>
<path d="M19.333 21.4006C18.8985 20.9572 18.3799 20.6049 17.8075 20.3644C17.2351 20.1239 16.6205 20 15.9997 20C15.3788 20 14.7642 20.1239 14.1918 20.3644C13.6195 20.6049 13.1008 20.9572 12.6663 21.4006M13.333 12.334C12.6663 13.6673 9.99967 13.6673 9.33301 12.334M22.6663 12.334C21.9997 13.6673 19.333 13.6673 18.6663 12.334" stroke="white" stroke-width="1.5" stroke-linecap="round" stroke-linejoin="round"/>
</svg>
