<svg width="32" height="32" viewBox="0 0 32 32" fill="none" xmlns="http://www.w3.org/2000/svg">
<rect width="32" height="32" rx="8" fill="#FF4747" fill-opacity="0.3"/>
<path d="M4 16C4 17.5759 4.31039 19.1363 4.91345 20.5922C5.5165 22.0481 6.40042 23.371 7.51472 24.4853C8.62902 25.5996 9.95189 26.4835 11.4078 27.0866C12.8637 27.6896 14.4241 28 16 28C17.5759 28 19.1363 27.6896 20.5922 27.0866C22.0481 26.4835 23.371 25.5996 24.4853 24.4853C25.5996 23.371 26.4835 22.0481 27.0866 20.5922C27.6896 19.1363 28 17.5759 28 16C28 14.4241 27.6896 12.8637 27.0866 11.4078C26.4835 9.95189 25.5996 8.62902 24.4853 7.51472C23.371 6.40042 22.0481 5.5165 20.5922 4.91345C19.1363 4.31039 17.5759 4 16 4C14.4241 4 12.8637 4.31039 11.4078 4.91345C9.95189 5.5165 8.62902 6.40042 7.51472 7.51472C6.40042 8.62902 5.5165 9.95189 4.91345 11.4078C4.31039 12.8637 4 14.4241 4 16Z" fill="#EE5D5D" stroke="white" stroke-width="1.5" stroke-linecap="round" stroke-linejoin="round"/>
<path d="M18.7979 21.9249C19.0878 22.2208 19.5627 22.2256 19.8586 21.9357C20.1544 21.6458 20.1593 21.171 19.8694 20.8751L18.7979 21.9249ZM12.1313 20.8751C11.8414 21.171 11.8462 21.6458 12.1421 21.9357C12.438 22.2256 12.9128 22.2208 13.2027 21.9249L12.1313 20.8751ZM11.1973 11.4697C10.9044 11.1768 10.4296 11.1768 10.1367 11.4697C9.84377 11.7626 9.84377 12.2374 10.1367 12.5303L11.1973 11.4697ZM12.8033 15.197C13.0962 15.4899 13.5711 15.4899 13.864 15.197C14.1569 14.9041 14.1569 14.4292 13.864 14.1363L12.8033 15.197ZM13.864 12.5303C14.1569 12.2374 14.1569 11.7626 13.864 11.4697C13.5711 11.1768 13.0962 11.1768 12.8033 11.4697L13.864 12.5303ZM10.1367 14.1363C9.84377 14.4292 9.84377 14.9041 10.1367 15.197C10.4296 15.4899 10.9044 15.4899 11.1973 15.197L10.1367 14.1363ZM19.1973 11.4697C18.9044 11.1768 18.4296 11.1768 18.1367 11.4697C17.8438 11.7626 17.8438 12.2374 18.1367 12.5303L19.1973 11.4697ZM20.8033 15.197C21.0962 15.4899 21.5711 15.4899 21.864 15.197C22.1569 14.9041 22.1569 14.4292 21.864 14.1363L20.8033 15.197ZM21.864 12.5303C22.1569 12.2374 22.1569 11.7626 21.864 11.4697C21.5711 11.1768 21.0962 11.1768 20.8033 11.4697L21.864 12.5303ZM18.1367 14.1363C17.8438 14.4292 17.8438 14.9041 18.1367 15.197C18.4296 15.4899 18.9044 15.4899 19.1973 15.197L18.1367 14.1363ZM19.8694 20.8751C19.365 20.3604 18.7631 19.9514 18.0987 19.6723L17.5176 21.0552C17.998 21.257 18.4333 21.5527 18.7979 21.9249L19.8694 20.8751ZM18.0987 19.6723C17.4343 19.3931 16.721 19.2493 16.0003 19.2493V20.7493C16.5214 20.7493 17.0372 20.8533 17.5176 21.0552L18.0987 19.6723ZM16.0003 19.2493C15.2797 19.2493 14.5663 19.3931 13.902 19.6723L14.483 21.0552C14.9634 20.8533 15.4793 20.7493 16.0003 20.7493V19.2493ZM13.902 19.6723C13.2376 19.9514 12.6356 20.3604 12.1313 20.8751L13.2027 21.9249C13.5674 21.5527 14.0027 21.257 14.483 21.0552L13.902 19.6723ZM10.1367 12.5303L12.8033 15.197L13.864 14.1363L11.1973 11.4697L10.1367 12.5303ZM12.8033 11.4697L10.1367 14.1363L11.1973 15.197L13.864 12.5303L12.8033 11.4697ZM18.1367 12.5303L20.8033 15.197L21.864 14.1363L19.1973 11.4697L18.1367 12.5303ZM20.8033 11.4697L18.1367 14.1363L19.1973 15.197L21.864 12.5303L20.8033 11.4697Z" fill="white"/>
</svg>
