<svg width="25" height="24" viewBox="0 0 25 24" fill="none" xmlns="http://www.w3.org/2000/svg">
<path d="M9.99676 22.8525C10.4676 22.9613 10.9375 22.6677 11.0462 22.1969C11.155 21.726 10.8614 21.2561 10.3906 21.1474L9.99676 22.8525ZM7.86093 20.1409C7.44392 19.8967 6.90791 20.0368 6.6637 20.4538C6.4195 20.8708 6.55958 21.4068 6.97658 21.651L7.86093 20.1409ZM14.8675 1.14774C14.3968 1.03828 13.9265 1.33111 13.8171 1.8018C13.7076 2.27249 14.0004 2.7428 14.4711 2.85226L14.8675 1.14774ZM14.4711 21.1477C14.0004 21.2572 13.7076 21.7275 13.8171 22.1982C13.9265 22.6689 14.3968 22.9617 14.8675 22.8523L14.4711 21.1477ZM3.4031 18.2926C3.67373 18.693 4.21768 18.7982 4.61804 18.5275C5.0184 18.2569 5.12357 17.713 4.85294 17.3126L3.4031 18.2926ZM3.59685 14.6105C3.46486 14.1456 2.98101 13.8757 2.51614 14.0077C2.05126 14.1397 1.7814 14.6235 1.91338 15.0884L3.59685 14.6105ZM1.63673 10.1482C1.55787 10.625 1.88044 11.0754 2.35721 11.1543C2.83398 11.2331 3.28441 10.9105 3.36327 10.4338L1.63673 10.1482ZM3.50703 7.24325L2.73845 6.82501C2.73519 6.831 2.732 6.83703 2.72889 6.84309L3.50703 7.24325ZM4.4647 7.31398C4.69568 6.88951 4.53883 6.35815 4.11435 6.12717C3.68988 5.89619 3.15853 6.05304 2.92755 6.47752L4.4647 7.31398ZM6.23062 2.82844C5.83491 3.10582 5.73898 3.65147 6.01636 4.04719C6.29374 4.4429 6.83939 4.53883 7.2351 4.26145L6.23062 2.82844ZM10.3909 2.85248C10.8617 2.74353 11.1551 2.27355 11.0461 1.80274C10.9372 1.33193 10.4672 1.03858 9.99641 1.14752L10.3909 2.85248ZM10.3906 21.1474C9.50322 20.9424 8.65054 20.6033 7.86093 20.1409L6.97658 21.651C7.91833 22.2025 8.93633 22.6076 9.99676 22.8525L10.3906 21.1474ZM14.4711 2.85226C16.4991 3.32387 18.3129 4.48332 19.6138 6.14458L20.9916 5.06565C19.4473 3.09351 17.2887 1.71081 14.8675 1.14774L14.4711 2.85226ZM19.6138 6.14458C20.9149 7.80614 21.625 9.87057 21.625 12H23.375C23.375 9.4824 22.5357 7.03748 20.9916 5.06565L19.6138 6.14458ZM21.625 12C21.625 14.1294 20.9149 16.1939 19.6138 17.8554L20.9916 18.9344C22.5357 16.9625 23.375 14.5176 23.375 12H21.625ZM19.6138 17.8554C18.3129 19.5167 16.4991 20.6761 14.4711 21.1477L14.8675 22.8523C17.2887 22.2892 19.4473 20.9065 20.9916 18.9344L19.6138 17.8554ZM4.85294 17.3126C4.29483 16.4869 3.87057 15.5746 3.59685 14.6105L1.91338 15.0884C2.23761 16.2304 2.74049 17.3124 3.4031 18.2926L4.85294 17.3126ZM3.36327 10.4338C3.52728 9.4422 3.84285 8.50352 4.28516 7.6434L2.72889 6.84309C2.20446 7.86288 1.83078 8.97502 1.63673 10.1482L3.36327 10.4338ZM4.2756 7.66148L4.4647 7.31398L2.92755 6.47752L2.73845 6.82501L4.2756 7.66148ZM7.2351 4.26145C8.19051 3.59175 9.26154 3.11381 10.3909 2.85248L9.99641 1.14752C8.64701 1.45977 7.36906 2.03044 6.23062 2.82844L7.2351 4.26145Z" fill="white"/>
</svg>
