<svg width="25" height="24" viewBox="0 0 25 24" fill="none" xmlns="http://www.w3.org/2000/svg">
<path d="M21.4419 10.979C21.3165 9.88051 20.989 8.80862 20.47 7.81918C19.6321 6.22183 18.3335 4.91311 16.7427 4.06278C15.1519 3.21245 13.3423 2.85975 11.5486 3.05043C9.75492 3.24111 8.05991 3.96637 6.68344 5.13213C5.30697 6.2979 4.31256 7.85037 3.82918 9.5882C3.3458 11.326 3.39576 13.169 3.97259 14.8781C4.54941 16.5871 5.62648 18.0835 7.06409 19.1729C8.08735 19.9484 9.25965 20.4923 10.5 20.775" stroke="white" stroke-width="1.75" stroke-linecap="round" stroke-linejoin="round"/>
<path d="M14.5 18L17.1667 21L22.5 15" stroke="white" stroke-width="1.75" stroke-linecap="round" stroke-linejoin="round"/>
<path d="M12.5 7V12H16" stroke="white" stroke-width="1.75" stroke-linecap="round" stroke-linejoin="round"/>
</svg>
