<svg width="25" height="24" viewBox="0 0 25 24" fill="none" xmlns="http://www.w3.org/2000/svg">
<circle cx="9" cy="3.5" r="2.5" fill="white"/>
<path d="M5.59472 22.8031C5.48616 23.1453 5.67555 23.5107 6.01772 23.6193C6.3599 23.7278 6.72529 23.5384 6.83385 23.1963L5.59472 22.8031ZM12.4618 23.2253C12.5865 23.562 12.9604 23.7339 13.2971 23.6093C13.6337 23.4847 13.8056 23.1107 13.681 22.7741L12.4618 23.2253ZM11.3571 18.3682L11.9667 18.1426C11.9454 18.085 11.9161 18.0308 11.8796 17.9814L11.3571 18.3682ZM8.78571 7.94727L9.195 7.4423C8.97278 7.26219 8.65894 7.24852 8.4219 7.40862L8.78571 7.94727ZM5.37537 13.499C5.56384 13.8045 5.96431 13.8994 6.26984 13.7109C6.57537 13.5225 6.67025 13.122 6.48178 12.8165L5.37537 13.499ZM4.5 10.842L4.13618 10.3033C3.84735 10.4984 3.7638 10.8866 3.94679 11.1832L4.5 10.842ZM13.0714 11.4209L12.6621 11.9259C12.9219 12.1364 13.2991 12.1155 13.534 11.8775L13.0714 11.4209ZM16.3912 8.98281C16.6434 8.72732 16.6407 8.31577 16.3852 8.06359C16.1297 7.81142 15.7181 7.8141 15.466 8.0696L16.3912 8.98281ZM6.83385 23.1963L9.40528 15.0911L8.16615 14.698L5.59472 22.8031L6.83385 23.1963ZM13.681 22.7741L11.9667 18.1426L10.7476 18.5938L12.4618 23.2253L13.681 22.7741ZM11.8796 17.9814L9.30814 14.5078L8.26328 15.2813L10.8347 18.7549L11.8796 17.9814ZM9.43571 14.8945V7.94727H8.13571V14.8945H9.43571ZM6.48178 12.8165L5.05321 10.5007L3.94679 11.1832L5.37537 13.499L6.48178 12.8165ZM4.86382 11.3806L9.14953 8.48591L8.4219 7.40862L4.13618 10.3033L4.86382 11.3806ZM8.37643 8.45223L12.6621 11.9259L13.4807 10.9159L9.195 7.4423L8.37643 8.45223ZM13.534 11.8775L16.3912 8.98281L15.466 8.0696L12.6088 10.9643L13.534 11.8775Z" fill="white"/>
<path d="M15.9287 9.10353V2.15625M15.9287 2.47788H20.5001L19.0403 4.22389L20.5001 5.87801H15.9287" stroke="white" stroke-width="1.3" stroke-linecap="round" stroke-linejoin="round"/>
</svg>
