<svg width="24" height="24" viewBox="0 0 24 24" fill="none" xmlns="http://www.w3.org/2000/svg">
<path d="M16 5.56082C14.534 3.99051 12.3891 3 9.99948 3C5.58091 3 2 6.38664 2 10.5633C2 15.8984 8.7211 21 9.99948 21C10.6145 21 12.4893 19.8193 14.2695 18" stroke="white" stroke-width="1.3" stroke-linecap="round" stroke-linejoin="round"/>
<path d="M10.4689 8.85156H8.82161C8.38472 8.85156 7.96573 9.02512 7.6568 9.33404C7.34787 9.64297 7.17432 10.062 7.17432 10.4989V13.7935C7.17432 14.2303 7.34787 14.6493 7.6568 14.9583C7.96573 15.2672 8.38472 15.4407 8.82161 15.4407H10.4689V12.1462H9.64526" stroke="white" stroke-width="1.3" stroke-linecap="round" stroke-linejoin="round"/>
<path d="M12.9397 12.1462H14.587C15.0239 12.1462 15.4429 11.9726 15.7518 11.6637C16.0607 11.3547 16.2343 10.9357 16.2343 10.4989C16.2343 10.062 16.0607 9.64297 15.7518 9.33404C15.4429 9.02512 15.0239 8.85156 14.587 8.85156H12.9397V15.4407" stroke="white" stroke-width="1.3" stroke-linecap="round" stroke-linejoin="round"/>
<path d="M18.7056 14.6171C18.7056 14.8355 18.7923 15.045 18.9468 15.1995C19.1013 15.354 19.3108 15.4407 19.5292 15.4407H21.1765C21.395 15.4407 21.6045 15.354 21.7589 15.1995C21.9134 15.045 22.0002 14.8355 22.0002 14.6171V12.9698C22.0002 12.7514 21.9134 12.5419 21.7589 12.3874C21.6045 12.2329 21.395 12.1462 21.1765 12.1462H19.5292C19.3108 12.1462 19.1013 12.0594 18.9468 11.9049C18.7923 11.7505 18.7056 11.541 18.7056 11.3225V9.67521C18.7056 9.45677 18.7923 9.24727 18.9468 9.0928C19.1013 8.93834 19.3108 8.85156 19.5292 8.85156H21.1765C21.395 8.85156 21.6045 8.93834 21.7589 9.0928C21.9134 9.24727 22.0002 9.45677 22.0002 9.67521" stroke="white" stroke-width="1.3" stroke-linecap="round" stroke-linejoin="round"/>
</svg>
