<svg width="24" height="24" viewBox="0 0 24 24" fill="none" xmlns="http://www.w3.org/2000/svg">
<path d="M11.2153 11V3.5C11.2153 3.10218 11.0523 2.72064 10.762 2.43934C10.4718 2.15804 10.0782 2 9.66783 2C9.25742 2 8.86382 2.15804 8.57362 2.43934C8.28342 2.72064 8.12038 3.10218 8.12038 3.5V12L6.60388 10.53C6.3001 10.2359 5.90365 10.0486 5.4775 9.99785C5.05134 9.94712 4.61992 10.0359 4.25175 10.25C3.9061 10.4509 3.65493 10.7745 3.55167 11.1522C3.4484 11.5298 3.50119 11.9315 3.6988 12.272C5.63724 15.612 6.76688 17.521 7.08875 18C7.15588 18.1002 7.22328 18.2002 7.29095 18.3C7.85475 19.1299 8.62236 19.811 9.52483 20.2823C10.4273 20.7535 11.4364 21.0002 12.4615 21H12.2469H14.3102C15.9518 21 17.5262 20.3679 18.687 19.2426C19.8479 18.1174 20.5 16.5913 20.5 15V10.5C20.5 10.1022 20.337 9.72064 20.0468 9.43934C19.7566 9.15804 19.363 9 18.9525 9C18.5421 9 18.1485 9.15804 17.8583 9.43934C17.5681 9.72064 17.4051 10.1022 17.4051 10.5M11.2153 10.5V8.5C11.2153 8.30302 11.2553 8.10796 11.3331 7.92597C11.4108 7.74399 11.5248 7.57863 11.6685 7.43934C11.8122 7.30005 11.9828 7.18956 12.1706 7.11418C12.3583 7.0388 12.5595 7 12.7627 7C12.966 7 13.1672 7.0388 13.3549 7.11418C13.5427 7.18956 13.7133 7.30005 13.857 7.43934C14.0006 7.57863 14.1146 7.74399 14.1924 7.92597C14.2702 8.10796 14.3102 8.30302 14.3102 8.5V11M14.3102 9.5C14.3102 9.10218 14.4732 8.72064 14.7634 8.43934C15.0536 8.15804 15.4472 8 15.8576 8C16.2681 8 16.6617 8.15804 16.9519 8.43934C17.2421 8.72064 17.4051 9.10218 17.4051 9.5V11" stroke="white" stroke-width="1.3" stroke-linecap="round" stroke-linejoin="round"/>
</svg>
