<svg width="24" height="24" viewBox="0 0 24 24" fill="none" xmlns="http://www.w3.org/2000/svg">
<path fill-rule="evenodd" clip-rule="evenodd" d="M16.2169 3H7.78216C4.84281 3 3 5.08119 3 8.02638V15.9736C3 18.9188 4.83405 21 7.78216 21H16.2159C19.165 21 21 18.9188 21 15.9736V8.02638C21 5.08119 19.165 3 16.2169 3Z" stroke="white" stroke-width="1.3" stroke-linecap="round" stroke-linejoin="round"/>
<path d="M9.5 9.82013C9.5 9.3374 9.73033 8.87444 10.1403 8.5331C10.5503 8.19176 11.1064 8 11.6862 8H12.3108C12.8906 8 13.4467 8.19176 13.8567 8.5331C14.2667 8.87444 14.497 9.3374 14.497 9.82013C14.52 10.214 14.4106 10.6045 14.1853 10.9328C13.96 11.2611 13.6309 11.5094 13.2477 11.6403C12.8646 11.8148 12.5355 12.1458 12.3102 12.5835C12.0849 13.0212 11.9755 13.5419 11.9985 14.0671M11.9985 16H12" stroke="white" stroke-width="1.3" stroke-linecap="round"/>
</svg>
