<svg width="40" height="40" viewBox="0 0 40 40" fill="none" xmlns="http://www.w3.org/2000/svg">
<path d="M23.4521 27.4499C23.8386 27.8443 24.4717 27.8508 24.8662 27.4643C25.2607 27.0778 25.2671 26.4446 24.8806 26.0501L23.4521 27.4499ZM15.1187 26.0501C14.7322 26.4446 14.7387 27.0778 15.1332 27.4643C15.5276 27.8508 16.1608 27.8443 16.5473 27.4499L15.1187 26.0501ZM14.0401 14.2929C13.6496 13.9024 13.0164 13.9024 12.6259 14.2929C12.2354 14.6834 12.2354 15.3166 12.6259 15.7071L14.0401 14.2929ZM15.9592 19.0404C16.3498 19.431 16.9829 19.431 17.3734 19.0404C17.764 18.6499 17.764 18.0168 17.3734 17.6262L15.9592 19.0404ZM17.3734 15.7071C17.764 15.3166 17.764 14.6834 17.3734 14.2929C16.9829 13.9024 16.3498 13.9024 15.9592 14.2929L17.3734 15.7071ZM12.6259 17.6262C12.2354 18.0168 12.2354 18.6499 12.6259 19.0404C13.0164 19.431 13.6496 19.431 14.0401 19.0404L12.6259 17.6262ZM24.0401 14.2929C23.6496 13.9024 23.0164 13.9024 22.6259 14.2929C22.2354 14.6834 22.2354 15.3166 22.6259 15.7071L24.0401 14.2929ZM25.9592 19.0404C26.3498 19.431 26.9829 19.431 27.3734 19.0404C27.764 18.6499 27.764 18.0168 27.3734 17.6262L25.9592 19.0404ZM27.3734 15.7071C27.764 15.3166 27.764 14.6834 27.3734 14.2929C26.9829 13.9024 26.3498 13.9024 25.9592 14.2929L27.3734 15.7071ZM22.6259 17.6262C22.2354 18.0168 22.2354 18.6499 22.6259 19.0404C23.0164 19.431 23.6496 19.431 24.0401 19.0404L22.6259 17.6262ZM24.8806 26.0501C24.2444 25.4008 23.485 24.8849 22.6469 24.5327L21.8721 26.3766C22.4649 26.6257 23.002 26.9906 23.4521 27.4499L24.8806 26.0501ZM22.6469 24.5327C21.8087 24.1806 20.9088 23.9991 19.9997 23.9991V25.9991C20.6427 25.9991 21.2793 26.1275 21.8721 26.3766L22.6469 24.5327ZM19.9997 23.9991C19.0906 23.9991 18.1906 24.1806 17.3525 24.5327L18.1273 26.3766C18.7201 26.1275 19.3566 25.9991 19.9997 25.9991V23.9991ZM17.3525 24.5327C16.5144 24.8849 15.755 25.4008 15.1187 26.0501L16.5473 27.4499C16.9973 26.9906 17.5345 26.6257 18.1273 26.3766L17.3525 24.5327ZM12.6259 15.7071L15.9592 19.0404L17.3734 17.6262L14.0401 14.2929L12.6259 15.7071ZM15.9592 14.2929L12.6259 17.6262L14.0401 19.0404L17.3734 15.7071L15.9592 14.2929ZM22.6259 15.7071L25.9592 19.0404L27.3734 17.6262L24.0401 14.2929L22.6259 15.7071ZM25.9592 14.2929L22.6259 17.6262L24.0401 19.0404L27.3734 15.7071L25.9592 14.2929Z" fill="white"/>
<path d="M5 20C5 21.9698 5.38799 23.9204 6.14181 25.7403C6.89563 27.5601 8.00052 29.2137 9.3934 30.6066C10.7863 31.9995 12.4399 33.1044 14.2597 33.8582C16.0796 34.612 18.0302 35 20 35C21.9698 35 23.9204 34.612 25.7403 33.8582C27.5601 33.1044 29.2137 31.9995 30.6066 30.6066C31.9995 29.2137 33.1044 27.5601 33.8582 25.7403C34.612 23.9204 35 21.9698 35 20C35 18.0302 34.612 16.0796 33.8582 14.2597C33.1044 12.4399 31.9995 10.7863 30.6066 9.3934C29.2137 8.00052 27.5601 6.89563 25.7403 6.14181C23.9204 5.38799 21.9698 5 20 5C18.0302 5 16.0796 5.38799 14.2597 6.14181C12.4399 6.89563 10.7863 8.00052 9.3934 9.3934C8.00052 10.7863 6.89563 12.4399 6.14181 14.2597C5.38799 16.0796 5 18.0302 5 20Z" stroke="#B4AEAB" stroke-width="2" stroke-linecap="round" stroke-linejoin="round"/>
</svg>
