<svg width="41" height="40" viewBox="0 0 41 40" fill="none" xmlns="http://www.w3.org/2000/svg">
<path d="M5.3999 20C5.3999 21.9698 5.78789 23.9204 6.54171 25.7403C7.29553 27.5601 8.40042 29.2137 9.7933 30.6066C11.1862 31.9995 12.8398 33.1044 14.6597 33.8582C16.4795 34.612 18.4301 35 20.3999 35C22.3697 35 24.3203 34.612 26.1402 33.8582C27.96 33.1044 29.6136 31.9995 31.0065 30.6066C32.3994 29.2137 33.5043 27.5601 34.2581 25.7403C35.0119 23.9204 35.3999 21.9698 35.3999 20C35.3999 18.0302 35.0119 16.0796 34.2581 14.2597C33.5043 12.4399 32.3994 10.7863 31.0065 9.3934C29.6136 8.00052 27.96 6.89563 26.1402 6.14181C24.3203 5.38799 22.3697 5 20.3999 5C18.4301 5 16.4795 5.38799 14.6597 6.14181C12.8398 6.89563 11.1862 8.00052 9.7933 9.3934C8.40042 10.7863 7.29553 12.4399 6.54171 14.2597C5.78789 16.0796 5.3999 18.0302 5.3999 20Z" stroke="#B4AEAB" stroke-width="2" stroke-linecap="round" stroke-linejoin="round"/>
<path d="M15.3996 15H15.4162M25.3996 15H25.4162M13.7329 21.6667C13.7329 23.4348 14.4353 25.1305 15.6855 26.3807C16.9358 27.631 18.6315 28.3333 20.3996 28.3333C22.1677 28.3333 23.8634 27.631 25.1136 26.3807C26.3639 25.1305 27.0662 23.4348 27.0662 21.6667H13.7329Z" stroke="white" stroke-width="2" stroke-linecap="round" stroke-linejoin="round"/>
</svg>
