<svg width="41" height="40" viewBox="0 0 41 40" fill="none" xmlns="http://www.w3.org/2000/svg">
<path d="M14.1331 26.666L15.7997 24.9993L18.2997 26.666L20.7997 24.9993L23.2997 26.666L25.7997 24.9993L27.4664 26.666M14.9664 19.166L17.4664 16.666L14.9664 14.166M26.6331 19.166L24.1331 16.666L26.6331 14.166" stroke="white" stroke-width="2" stroke-linecap="round" stroke-linejoin="round"/>
<path d="M5.80005 20C5.80005 21.9698 6.18804 23.9204 6.94186 25.7403C7.69568 27.5601 8.80057 29.2137 10.1934 30.6066C11.5863 31.9995 13.2399 33.1044 15.0598 33.8582C16.8797 34.612 18.8302 35 20.8 35C22.7699 35 24.7204 34.612 26.5403 33.8582C28.3602 33.1044 30.0138 31.9995 31.4067 30.6066C32.7995 29.2137 33.9044 27.5601 34.6582 25.7403C35.4121 23.9204 35.8 21.9698 35.8 20C35.8 18.0302 35.4121 16.0796 34.6582 14.2597C33.9044 12.4399 32.7995 10.7863 31.4067 9.3934C30.0138 8.00052 28.3602 6.89563 26.5403 6.14181C24.7204 5.38799 22.7699 5 20.8 5C18.8302 5 16.8797 5.38799 15.0598 6.14181C13.2399 6.89563 11.5863 8.00052 10.1934 9.3934C8.80057 10.7863 7.69568 12.4399 6.94186 14.2597C6.18804 16.0796 5.80005 18.0302 5.80005 20Z" stroke="#B4AEAB" stroke-width="2" stroke-linecap="round" stroke-linejoin="round"/>
</svg>
