<svg width="41" height="40" viewBox="0 0 41 40" fill="none" xmlns="http://www.w3.org/2000/svg">
<path d="M15.6007 16.666H15.6174M25.6007 16.666H25.6174M13.9341 26.666L17.2674 23.3327L20.6007 26.666L23.9341 23.3327L27.2674 26.666" stroke="white" stroke-width="2" stroke-linecap="round" stroke-linejoin="round"/>
<path d="M5.6001 20C5.6001 21.9698 5.98808 23.9204 6.7419 25.7403C7.49573 27.5601 8.60062 29.2137 9.9935 30.6066C11.3864 31.9995 13.04 33.1044 14.8598 33.8582C16.6797 34.612 18.6303 35 20.6001 35C22.5699 35 24.5205 34.612 26.3403 33.8582C28.1602 33.1044 29.8138 31.9995 31.2067 30.6066C32.5996 29.2137 33.7045 27.5601 34.4583 25.7403C35.2121 23.9204 35.6001 21.9698 35.6001 20C35.6001 18.0302 35.2121 16.0796 34.4583 14.2597C33.7045 12.4399 32.5996 10.7863 31.2067 9.3934C29.8138 8.00052 28.1602 6.89563 26.3403 6.14181C24.5205 5.38799 22.5699 5 20.6001 5C18.6303 5 16.6797 5.38799 14.8598 6.14181C13.04 6.89563 11.3864 8.00052 9.9935 9.3934C8.60062 10.7863 7.49573 12.4399 6.7419 14.2597C5.98808 16.0796 5.6001 18.0302 5.6001 20Z" stroke="#B4AEAB" stroke-width="2" stroke-linecap="round" stroke-linejoin="round"/>
</svg>
