<svg width="40" height="40" viewBox="0 0 40 40" fill="none" xmlns="http://www.w3.org/2000/svg">
<path d="M24.1667 26.75C23.6235 26.1957 22.9753 25.7553 22.2598 25.4546C21.5443 25.154 20.7761 24.9991 20 24.9991C19.2239 24.9991 18.4557 25.154 17.7402 25.4546C17.0247 25.7553 16.3765 26.1957 15.8333 26.75M16.6667 15.4167C15.8333 17.0833 12.5 17.0833 11.6667 15.4167M28.3333 15.4167C27.5 17.0833 24.1667 17.0833 23.3333 15.4167M5 20C5 21.9698 5.38799 23.9204 6.14181 25.7403C6.89563 27.5601 8.00052 29.2137 9.3934 30.6066C10.7863 31.9995 12.4399 33.1044 14.2597 33.8582C16.0796 34.612 18.0302 35 20 35C21.9698 35 23.9204 34.612 25.7403 33.8582C27.5601 33.1044 29.2137 31.9995 30.6066 30.6066C31.9995 29.2137 33.1044 27.5601 33.8582 25.7403C34.612 23.9204 35 21.9698 35 20C35 18.0302 34.612 16.0796 33.8582 14.2597C33.1044 12.4399 31.9995 10.7863 30.6066 9.3934C29.2137 8.00052 27.5601 6.89563 25.7403 6.14181C23.9204 5.38799 21.9698 5 20 5C18.0302 5 16.0796 5.38799 14.2597 6.14181C12.4399 6.89563 10.7863 8.00052 9.3934 9.3934C8.00052 10.7863 6.89563 12.4399 6.14181 14.2597C5.38799 16.0796 5 18.0302 5 20Z" stroke="#B4AEAB" stroke-width="2" stroke-linecap="round" stroke-linejoin="round"/>
<path d="M24.166 26.7493C23.6229 26.195 22.9746 25.7546 22.2591 25.454C21.5437 25.1534 20.7754 24.9985 19.9993 24.9985C19.2233 24.9985 18.455 25.1534 17.7396 25.454C17.0241 25.7546 16.3758 26.195 15.8327 26.7493M16.666 15.416C15.8327 17.0827 12.4993 17.0827 11.666 15.416M28.3327 15.416C27.4993 17.0827 24.166 17.0827 23.3327 15.416" stroke="white" stroke-width="2" stroke-linecap="round" stroke-linejoin="round"/>
</svg>
