<svg width="41" height="40" viewBox="0 0 41 40" fill="none" xmlns="http://www.w3.org/2000/svg">
<path d="M5.19995 20C5.19995 21.9698 5.58794 23.9204 6.34176 25.7403C7.09558 27.5601 8.20047 29.2137 9.59335 30.6066C10.9862 31.9995 12.6398 33.1044 14.4597 33.8582C16.2796 34.612 18.2301 35 20.2 35C22.1698 35 24.1203 34.612 25.9402 33.8582C27.7601 33.1044 29.4137 31.9995 30.8066 30.6066C32.1994 29.2137 33.3043 27.5601 34.0581 25.7403C34.812 23.9204 35.2 21.9698 35.2 20C35.2 18.0302 34.812 16.0796 34.0581 14.2597C33.3043 12.4399 32.1994 10.7863 30.8066 9.3934C29.4137 8.00052 27.7601 6.89563 25.9402 6.14181C24.1203 5.38799 22.1698 5 20.2 5C18.2301 5 16.2796 5.38799 14.4597 6.14181C12.6398 6.89563 10.9862 8.00052 9.59335 9.3934C8.20047 10.7863 7.09558 12.4399 6.34176 14.2597C5.58794 16.0796 5.19995 18.0302 5.19995 20Z" stroke="#B4AEAB" stroke-width="2" stroke-linecap="round" stroke-linejoin="round"/>
<path d="M18.5326 26.6641L25.1993 24.1641M16.866 16.6641C16.0326 14.9974 12.6993 14.9974 11.866 16.6641M28.5326 16.6641C27.6993 14.9974 24.366 14.9974 23.5326 16.6641" stroke="white" stroke-width="2" stroke-linecap="round" stroke-linejoin="round"/>
</svg>
